<svg id="svg" version="1.1" xmlns="http://www.w3.org/2000/svg" xmlns:xlink="http://www.w3.org/1999/xlink" width="400" height="313.2352941176471" viewBox="0, 0, 400,313.2352941176471"><g id="svgg"><path id="path0" d="M249.089 97.588 C 248.781 97.814,248.339 98.695,248.107 99.548 C 247.484 101.839,246.217 104.729,245.366 105.799 C 244.955 106.316,244.519 107.163,244.398 107.680 C 244.124 108.854,243.029 111.809,242.483 112.853 C 240.909 115.857,239.206 119.289,238.434 121.013 C 237.935 122.128,237.227 123.464,236.860 123.981 C 236.494 124.498,235.658 125.980,235.003 127.273 C 233.900 129.447,233.209 130.577,231.751 132.592 C 229.539 135.650,229.412 136.929,231.132 138.807 C 233.106 140.960,236.066 145.063,237.147 147.144 C 242.074 156.620,252.369 156.950,256.862 147.775 C 257.360 146.757,258.275 145.149,258.894 144.201 C 260.264 142.101,262.696 137.356,262.696 136.781 C 262.696 136.551,262.827 136.364,262.988 136.364 C 263.324 136.364,265.875 131.107,268.009 126.019 C 268.551 124.726,269.267 123.033,269.600 122.257 C 271.169 118.595,274.743 107.105,275.064 104.694 C 275.168 103.913,275.449 102.896,275.689 102.434 C 276.129 101.585,276.266 100.511,276.207 98.354 L 276.176 97.179 262.913 97.179 C 252.488 97.179,249.530 97.266,249.089 97.588 M182.654 113.375 C 182.037 113.993,182.455 118.677,183.229 119.817 C 183.660 120.451,184.013 121.097,184.013 121.253 C 184.013 122.011,187.363 125.827,189.144 127.098 C 190.245 127.884,191.322 128.739,191.536 128.997 C 192.050 129.616,192.753 129.590,194.916 128.873 C 197.789 127.920,203.624 127.470,207.524 127.900 L 210.815 128.263 212.853 126.122 C 216.557 122.230,218.260 118.862,218.729 114.498 L 218.872 113.166 200.868 113.166 C 190.965 113.166,182.769 113.260,182.654 113.375 M100.679 131.517 C 100.179 132.614,100.238 137.333,100.784 139.812 C 101.030 140.933,101.240 142.555,101.250 143.417 C 101.261 144.279,101.419 145.549,101.604 146.238 C 101.788 146.928,102.140 148.480,102.387 149.687 C 102.635 150.893,103.117 152.727,103.459 153.762 C 103.801 154.796,104.080 155.839,104.078 156.079 C 104.077 156.318,104.350 157.094,104.685 157.803 C 105.020 158.511,105.581 159.726,105.931 160.502 C 106.281 161.277,106.693 162.124,106.846 162.382 C 107.000 162.641,107.522 163.699,108.007 164.734 C 108.492 165.768,109.500 167.320,110.248 168.182 L 111.608 169.749 97.183 169.831 L 82.759 169.912 82.759 172.784 C 82.759 175.061,82.870 175.779,83.298 176.252 C 83.672 176.665,83.875 177.540,83.957 179.098 C 84.054 180.931,84.213 181.494,84.815 182.136 C 85.222 182.569,85.711 183.650,85.901 184.539 C 86.092 185.427,86.520 186.689,86.854 187.344 C 87.188 187.998,87.461 188.896,87.461 189.338 C 87.461 189.781,87.652 190.421,87.886 190.761 C 88.121 191.101,88.494 191.944,88.716 192.633 C 88.937 193.323,89.443 194.276,89.839 194.751 C 90.234 195.226,91.015 196.566,91.574 197.729 C 92.133 198.892,93.238 200.619,94.031 201.567 C 94.824 202.516,95.713 203.671,96.007 204.135 C 96.746 205.301,101.517 210.098,102.665 210.828 C 103.760 211.525,107.349 214.167,108.412 215.059 C 108.814 215.397,109.084 215.850,109.011 216.065 C 108.866 216.496,109.644 217.216,110.270 217.231 C 110.487 217.237,111.263 217.518,111.994 217.857 C 125.225 223.982,140.040 222.493,153.499 213.686 C 157.198 211.265,157.626 211.442,158.316 215.674 C 158.527 216.967,158.837 218.378,159.004 218.809 C 159.172 219.240,159.563 220.792,159.875 222.257 C 160.689 226.081,161.645 229.873,162.526 232.759 C 162.946 234.138,163.385 235.760,163.501 236.364 C 163.617 236.967,163.889 237.813,164.106 238.245 C 164.323 238.676,164.664 239.804,164.865 240.752 C 165.262 242.635,166.481 246.586,167.427 249.060 C 167.757 249.922,168.227 251.332,168.471 252.194 C 168.716 253.056,169.357 254.961,169.896 256.426 C 170.435 257.892,171.209 260.008,171.617 261.129 C 175.113 270.736,175.053 270.658,180.878 273.176 C 188.842 276.620,189.737 276.966,191.776 277.393 C 192.683 277.583,193.929 277.948,194.543 278.205 C 195.157 278.462,196.813 278.819,198.222 278.998 C 199.631 279.178,201.348 279.462,202.038 279.631 C 204.588 280.253,210.949 280.347,214.463 279.815 C 216.297 279.537,219.401 279.178,221.360 279.016 C 223.319 278.855,225.474 278.491,226.149 278.207 C 226.823 277.924,228.212 277.557,229.234 277.392 C 230.255 277.228,231.396 276.896,231.768 276.655 C 232.141 276.414,233.130 276.046,233.966 275.837 C 236.315 275.252,237.448 273.812,240.716 267.263 C 242.288 264.114,243.574 261.408,243.574 261.250 C 243.574 261.092,243.874 260.402,244.241 259.717 C 244.609 259.031,245.162 257.764,245.470 256.900 C 245.779 256.036,246.476 254.130,247.019 252.665 C 247.562 251.199,248.281 249.042,248.616 247.872 C 248.952 246.701,249.360 245.502,249.522 245.207 C 249.789 244.724,250.342 242.682,251.577 237.618 C 252.563 233.576,253.602 228.162,253.924 225.392 C 254.115 223.754,254.394 221.638,254.544 220.690 C 254.695 219.741,254.974 215.792,255.166 211.912 C 255.519 204.731,256.820 194.975,257.781 192.299 C 258.033 191.597,258.412 190.189,258.624 189.169 C 258.836 188.149,259.698 185.733,260.539 183.800 C 261.380 181.867,262.069 180.138,262.069 179.958 C 262.069 179.777,262.760 178.300,263.606 176.674 L 265.142 173.719 264.389 173.012 C 263.849 172.504,263.636 171.966,263.636 171.105 L 263.636 169.906 202.586 169.882 C 169.009 169.869,141.299 169.812,141.009 169.756 C 140.681 169.693,140.541 169.808,140.639 170.062 C 140.725 170.286,140.641 170.565,140.452 170.681 C 140.264 170.798,140.130 170.777,140.155 170.635 C 140.301 169.790,139.990 169.666,137.620 169.623 C 134.382 169.564,132.145 169.129,131.043 168.345 C 128.154 166.287,124.755 160.894,124.251 157.566 C 124.143 156.853,123.714 155.446,123.297 154.438 C 122.476 152.456,121.681 146.232,122.056 144.734 C 122.312 143.715,123.332 142.703,124.693 142.119 C 128.468 140.498,131.718 136.067,131.788 132.445 L 131.818 130.878 116.431 130.796 L 101.044 130.715 100.679 131.517 " stroke="none" fill="#e66829" fill-rule="evenodd"></path><path id="path1" d="M199.421 34.404 C 199.263 34.706,199.028 35.447,198.899 36.050 C 198.576 37.557,197.032 41.347,196.477 41.996 C 196.226 42.288,195.620 43.265,195.129 44.166 C 194.293 45.703,193.408 46.684,189.985 49.867 C 188.604 51.152,183.416 53.918,182.389 53.918 C 182.095 53.918,181.769 54.058,181.664 54.228 C 181.559 54.398,180.669 54.758,179.686 55.028 C 176.500 55.904,175.671 56.662,176.881 57.591 C 177.320 57.928,180.606 59.110,181.829 59.370 C 187.683 60.617,195.026 67.522,197.836 74.423 C 198.321 75.614,198.805 77.025,198.912 77.558 C 199.308 79.532,199.394 79.664,200.228 79.564 C 200.949 79.477,201.147 79.119,202.192 76.019 C 204.948 67.847,211.615 60.702,218.122 58.950 C 222.310 57.823,223.976 56.348,221.485 55.974 C 220.715 55.859,219.307 55.349,218.356 54.841 C 217.405 54.334,216.423 53.918,216.174 53.918 C 215.926 53.918,215.323 53.601,214.836 53.213 C 214.349 52.825,213.405 52.230,212.738 51.890 C 208.851 49.910,203.960 43.255,202.018 37.304 C 200.868 33.783,200.161 32.993,199.421 34.404 M263.381 177.194 C 261.474 181.217,260.762 183.097,260.502 184.796 C 260.371 185.658,260.027 186.927,259.740 187.615 C 259.452 188.303,259.083 189.502,258.920 190.279 C 258.756 191.057,258.347 192.610,258.009 193.730 C 257.163 196.541,256.162 204.378,255.786 211.129 C 255.419 217.731,254.959 222.389,254.528 223.868 C 254.359 224.448,254.087 226.185,253.925 227.730 C 253.763 229.274,253.352 231.672,253.012 233.059 C 250.331 244.011,250.025 245.156,249.536 246.070 C 249.314 246.484,248.952 247.537,248.731 248.411 C 248.263 250.256,245.308 258.053,244.532 259.488 C 244.371 259.787,243.646 261.371,242.920 263.009 C 242.195 264.647,241.494 266.129,241.362 266.301 C 241.230 266.473,240.421 267.967,239.565 269.620 C 236.925 274.714,235.688 276.176,234.016 276.176 C 233.742 276.176,232.994 276.439,232.354 276.761 C 231.715 277.083,230.486 277.448,229.624 277.571 C 228.762 277.694,227.429 278.070,226.662 278.406 C 225.870 278.752,223.906 279.150,222.117 279.326 C 220.384 279.497,217.414 279.861,215.517 280.134 C 208.752 281.111,194.123 279.293,188.471 276.773 C 187.734 276.445,186.967 276.176,186.768 276.176 C 186.568 276.176,185.831 275.907,185.130 275.580 C 184.429 275.252,182.619 274.406,181.107 273.699 C 179.595 272.992,178.287 272.414,178.200 272.414 C 176.261 272.414,174.833 269.967,171.617 261.129 C 171.209 260.008,170.435 257.892,169.896 256.426 C 169.357 254.961,168.716 253.056,168.471 252.194 C 168.227 251.332,167.757 249.922,167.427 249.060 C 166.481 246.586,165.262 242.635,164.865 240.752 C 164.664 239.804,164.323 238.676,164.106 238.245 C 163.889 237.813,163.617 236.967,163.501 236.364 C 163.385 235.760,162.946 234.138,162.526 232.759 C 161.645 229.873,160.689 226.081,159.875 222.257 C 159.563 220.792,159.172 219.240,159.004 218.809 C 158.837 218.378,158.527 216.967,158.316 215.674 C 157.626 211.442,157.198 211.265,153.499 213.686 C 140.040 222.493,125.225 223.982,111.994 217.857 C 109.943 216.907,109.237 217.035,108.233 218.537 C 106.225 221.542,105.631 222.473,105.049 223.533 C 104.711 224.148,103.885 225.347,103.214 226.197 C 102.544 227.047,101.591 228.448,101.097 229.310 C 100.603 230.172,99.824 231.442,99.366 232.132 C 98.908 232.821,98.158 233.985,97.700 234.718 C 97.241 235.451,96.534 236.579,96.129 237.226 C 95.723 237.872,94.595 239.610,93.621 241.088 C 92.647 242.565,91.850 243.873,91.850 243.995 C 91.850 244.242,90.041 247.026,89.021 248.351 C 87.151 250.778,87.702 252.109,90.724 252.464 C 91.681 252.577,93.136 252.931,93.959 253.252 C 94.781 253.574,96.296 253.939,97.324 254.065 C 98.352 254.191,99.833 254.543,100.615 254.848 C 101.398 255.153,102.711 255.501,103.533 255.621 C 104.356 255.741,105.767 256.163,106.668 256.557 C 107.570 256.951,109.033 257.357,109.919 257.458 C 110.806 257.560,112.073 257.933,112.736 258.288 C 113.398 258.644,114.327 258.934,114.800 258.934 C 115.273 258.934,116.597 259.287,117.742 259.718 C 118.887 260.149,120.085 260.502,120.404 260.502 C 120.723 260.502,121.729 260.842,122.640 261.257 C 123.550 261.673,124.859 262.115,125.549 262.240 C 126.238 262.365,127.303 262.718,127.914 263.026 C 128.526 263.333,129.582 263.688,130.262 263.816 C 130.942 263.943,132.064 264.305,132.755 264.619 C 133.447 264.933,134.309 265.193,134.671 265.197 C 135.033 265.201,135.980 265.549,136.775 265.972 C 137.569 266.395,138.825 266.901,139.564 267.098 C 140.304 267.295,141.130 267.654,141.401 267.895 C 141.672 268.136,142.645 268.476,143.564 268.650 C 144.484 268.825,145.408 269.110,145.618 269.285 C 145.829 269.459,146.752 269.825,147.670 270.098 C 148.588 270.371,149.838 270.933,150.448 271.347 C 151.057 271.761,151.841 272.101,152.189 272.101 C 152.537 272.102,153.256 272.368,153.788 272.692 C 154.319 273.016,155.218 273.383,155.784 273.507 C 156.703 273.709,163.240 276.595,165.674 277.872 C 166.191 278.144,166.783 278.367,166.990 278.368 C 167.196 278.369,168.028 278.723,168.839 279.154 C 169.650 279.585,170.563 279.937,170.869 279.937 C 171.175 279.937,171.824 280.270,172.311 280.676 C 172.799 281.082,173.715 281.583,174.348 281.789 C 174.981 281.995,175.661 282.359,175.859 282.598 C 176.057 282.836,176.660 283.129,177.199 283.247 C 177.737 283.365,179.667 284.247,181.487 285.206 C 183.307 286.164,186.277 287.701,188.088 288.620 C 189.898 289.538,192.085 290.700,192.947 291.201 C 193.809 291.701,195.713 292.710,197.179 293.443 C 198.644 294.176,200.280 295.105,200.813 295.507 C 201.347 295.909,201.885 296.238,202.010 296.238 C 202.134 296.238,202.699 296.591,203.264 297.022 C 203.829 297.453,204.436 297.806,204.614 297.806 C 205.083 297.806,207.847 299.365,208.880 300.213 C 209.367 300.613,209.931 300.944,210.134 300.947 C 210.336 300.951,210.854 301.230,211.285 301.567 C 212.398 302.438,212.684 302.371,214.998 300.705 C 217.266 299.073,219.350 297.806,219.767 297.806 C 219.914 297.806,220.376 297.488,220.794 297.100 C 222.124 295.866,224.223 294.519,226.694 293.314 C 228.013 292.670,229.265 291.936,229.475 291.683 C 229.685 291.430,230.052 291.223,230.289 291.223 C 230.527 291.223,231.023 290.920,231.393 290.551 C 231.762 290.181,233.541 289.122,235.345 288.197 C 237.149 287.272,238.998 286.253,239.454 285.933 C 240.688 285.066,244.649 283.072,245.137 283.072 C 245.371 283.072,245.832 282.828,246.162 282.529 C 247.035 281.739,250.288 280.056,256.740 277.057 C 257.861 276.536,258.989 275.981,259.248 275.823 C 259.506 275.665,260.212 275.322,260.815 275.061 C 261.418 274.800,262.492 274.309,263.200 273.970 C 263.909 273.631,264.605 273.354,264.747 273.354 C 264.889 273.354,265.650 273.063,266.437 272.707 C 272.961 269.754,275.448 268.731,276.662 268.499 C 277.189 268.398,278.306 267.968,279.145 267.544 C 279.984 267.119,280.891 266.771,281.161 266.771 C 281.431 266.771,282.359 266.425,283.224 266.003 C 284.841 265.213,286.423 264.660,289.969 263.647 C 292.587 262.899,294.546 262.245,297.591 261.105 C 298.938 260.601,300.388 260.188,300.814 260.188 C 301.239 260.188,302.112 259.965,302.753 259.691 C 303.394 259.418,304.776 259.070,305.824 258.917 C 306.871 258.764,308.352 258.356,309.115 258.010 C 309.878 257.664,310.949 257.377,311.497 257.374 C 312.044 257.370,313.525 256.960,314.788 256.462 C 316.118 255.938,318.045 255.468,319.367 255.345 C 320.622 255.228,322.152 254.922,322.768 254.665 C 323.384 254.408,325.017 254.069,326.397 253.911 C 327.778 253.754,329.674 253.338,330.610 252.988 C 331.546 252.638,332.862 252.351,333.534 252.351 C 337.021 252.351,337.060 251.088,333.728 246.049 C 330.758 241.557,330.094 240.497,330.094 240.246 C 330.094 240.092,329.318 238.922,328.370 237.646 C 327.422 236.369,326.643 235.171,326.640 234.982 C 326.634 234.646,325.369 232.583,324.219 231.034 C 323.898 230.603,322.734 228.699,321.631 226.803 C 320.529 224.906,319.332 222.992,318.972 222.549 C 318.613 222.107,317.900 220.923,317.388 219.920 C 316.876 218.916,316.140 217.768,315.752 217.369 C 315.364 216.970,315.047 216.510,315.047 216.347 C 315.047 216.184,314.589 215.366,314.028 214.529 C 313.468 213.691,312.657 212.307,312.226 211.452 C 311.795 210.596,311.220 209.680,310.948 209.415 C 310.363 208.846,308.150 205.199,308.150 204.805 C 308.150 204.045,303.583 200.242,299.466 197.574 C 297.386 196.226,295.417 194.764,294.603 193.966 C 294.295 193.664,293.845 193.417,293.602 193.417 C 293.359 193.417,292.425 192.817,291.527 192.085 C 289.751 190.635,288.781 189.973,285.055 187.666 C 283.706 186.831,282.090 185.773,281.463 185.315 C 280.837 184.857,279.215 183.713,277.858 182.773 C 276.502 181.833,273.699 179.889,271.630 178.453 C 264.574 173.556,265.070 173.631,263.381 177.194 " stroke="none" fill="#2c2ba9" fill-rule="evenodd"></path><path id="path2" d="M263.793 23.239 C 259.279 23.561,256.869 25.192,254.567 29.483 C 253.129 32.162,249.566 35.258,245.925 36.992 C 240.829 39.418,237.217 54.694,240.152 61.403 C 240.482 62.158,240.752 62.909,240.752 63.072 C 240.752 63.547,244.248 67.371,244.860 67.565 C 245.795 67.862,248.879 71.108,249.095 72.023 C 249.207 72.497,249.657 73.660,250.094 74.608 C 251.199 77.001,251.250 83.076,250.191 86.149 C 249.816 87.238,249.379 89.157,249.219 90.414 C 249.060 91.670,248.662 93.389,248.334 94.233 C 248.006 95.077,247.644 96.379,247.529 97.126 C 247.414 97.873,246.971 99.173,246.544 100.015 C 246.117 100.858,245.768 101.856,245.768 102.235 C 245.768 102.613,245.432 103.500,245.022 104.204 C 244.612 104.909,244.175 105.959,244.050 106.536 C 243.819 107.608,242.892 109.888,241.545 112.696 C 241.132 113.558,240.348 115.251,239.802 116.458 C 238.866 118.530,236.000 124.296,234.084 127.962 C 233.606 128.876,232.800 130.259,232.292 131.034 C 231.785 131.810,231.082 132.969,230.731 133.610 C 229.317 136.189,228.298 136.038,221.944 132.301 C 220.585 131.502,217.241 130.146,216.144 129.948 C 212.506 129.295,212.001 127.836,214.456 125.078 C 220.240 118.580,221.324 111.340,217.671 103.605 C 217.035 102.259,214.319 99.160,212.598 97.816 C 205.600 92.352,195.640 92.252,188.245 97.571 C 186.341 98.940,182.132 104.216,182.132 105.233 C 182.132 105.413,181.850 106.444,181.505 107.524 C 179.372 114.199,182.525 122.975,188.546 127.121 C 191.249 128.984,191.252 130.242,188.553 131.601 C 179.283 136.272,171.383 142.820,162.956 152.821 C 157.536 159.254,151.130 164.239,143.574 167.905 C 141.099 169.106,136.082 169.563,132.873 168.880 C 129.781 168.222,125.351 161.791,124.445 156.647 C 124.256 155.577,123.814 153.926,123.461 152.978 C 123.043 151.854,122.762 150.140,122.651 148.051 L 122.482 144.849 123.456 143.938 C 123.992 143.438,124.959 142.777,125.605 142.471 C 128.091 141.291,129.944 139.575,131.718 136.811 C 135.844 130.381,135.209 119.955,130.396 115.109 C 129.592 114.299,128.327 113.284,127.584 112.853 C 123.616 110.549,122.262 108.452,122.259 104.603 C 122.258 103.428,122.105 102.182,121.918 101.833 C 121.404 100.873,120.305 99.687,119.928 99.685 C 119.743 99.684,118.887 99.325,118.025 98.886 C 112.628 96.137,98.504 97.451,91.693 101.336 C 91.348 101.533,90.638 101.917,90.115 102.189 C 86.832 103.899,80.964 110.340,80.100 113.180 C 79.971 113.604,79.614 114.373,79.306 114.890 C 78.999 115.408,78.579 116.655,78.373 117.663 C 78.168 118.671,77.810 119.950,77.577 120.506 C 75.987 124.313,75.971 145.080,77.553 152.528 C 77.812 153.746,78.176 156.285,78.363 158.170 C 78.551 160.056,78.899 162.234,79.139 163.009 C 79.378 163.785,79.733 165.619,79.927 167.085 C 80.122 168.550,80.547 170.596,80.871 171.630 C 81.195 172.665,81.552 174.005,81.663 174.608 C 82.478 179.026,84.381 184.635,87.833 192.790 C 91.165 200.663,97.896 208.516,106.113 214.117 C 106.975 214.704,107.998 215.461,108.386 215.798 C 108.832 216.186,109.091 216.266,109.091 216.018 C 109.091 215.803,108.774 215.361,108.386 215.036 C 107.337 214.157,103.742 211.513,102.665 210.828 C 101.517 210.098,96.746 205.301,96.007 204.135 C 95.713 203.671,94.824 202.516,94.031 201.567 C 93.238 200.619,92.133 198.892,91.574 197.729 C 91.015 196.566,90.234 195.226,89.839 194.751 C 89.443 194.276,88.937 193.323,88.716 192.633 C 88.494 191.944,88.121 191.101,87.886 190.761 C 87.652 190.421,87.461 189.781,87.461 189.338 C 87.461 188.896,87.188 187.998,86.854 187.344 C 86.520 186.689,86.092 185.427,85.901 184.539 C 85.711 183.650,85.222 182.569,84.815 182.136 C 84.213 181.494,84.054 180.931,83.957 179.098 C 83.875 177.540,83.672 176.665,83.298 176.252 C 82.870 175.779,82.759 175.061,82.759 172.784 L 82.759 169.912 97.183 169.831 L 111.608 169.749 110.248 168.182 C 109.500 167.320,108.492 165.768,108.007 164.734 C 107.522 163.699,107.000 162.641,106.846 162.382 C 106.693 162.124,106.281 161.277,105.931 160.502 C 105.581 159.726,105.020 158.511,104.685 157.803 C 104.350 157.094,104.077 156.318,104.078 156.079 C 104.080 155.839,103.801 154.796,103.459 153.762 C 103.117 152.727,102.635 150.893,102.387 149.687 C 102.140 148.480,101.788 146.928,101.604 146.238 C 101.419 145.549,101.261 144.279,101.250 143.417 C 101.240 142.555,101.030 140.933,100.784 139.812 C 100.238 137.333,100.179 132.614,100.679 131.517 L 101.044 130.715 116.431 130.796 L 131.818 130.878 131.788 132.445 C 131.718 136.067,128.468 140.498,124.693 142.119 C 123.332 142.703,122.312 143.715,122.056 144.734 C 121.681 146.232,122.476 152.456,123.297 154.438 C 123.714 155.446,124.143 156.853,124.251 157.566 C 124.755 160.894,128.154 166.287,131.043 168.345 C 132.145 169.129,134.382 169.564,137.620 169.623 C 139.990 169.666,140.301 169.790,140.155 170.635 C 140.130 170.777,140.264 170.798,140.452 170.681 C 140.641 170.565,140.725 170.286,140.639 170.062 C 140.541 169.808,140.681 169.693,141.009 169.756 C 141.299 169.812,169.009 169.869,202.586 169.882 L 263.636 169.906 263.636 171.105 C 263.636 171.971,263.849 172.504,264.400 173.022 C 265.067 173.649,265.145 173.665,265.016 173.155 C 264.934 172.834,265.131 172.077,265.452 171.473 C 265.774 170.870,267.068 168.401,268.327 165.987 C 269.586 163.574,270.880 161.262,271.202 160.851 C 271.524 160.440,271.787 159.902,271.787 159.656 C 271.787 159.228,275.343 151.903,275.865 151.254 C 276.004 151.082,276.398 150.165,276.739 149.216 C 278.127 145.368,278.824 143.690,279.367 142.898 C 279.681 142.441,279.937 141.871,279.937 141.632 C 279.937 141.394,280.229 140.640,280.585 139.957 C 280.941 139.274,281.493 137.939,281.811 136.991 C 282.129 136.042,282.843 134.138,283.398 132.759 C 283.953 131.379,285.079 128.346,285.900 126.019 C 286.722 123.691,287.843 120.588,288.393 119.122 C 289.428 116.362,290.163 113.965,291.371 109.404 C 291.760 107.939,292.301 106.211,292.575 105.564 C 292.848 104.917,293.218 103.594,293.398 102.625 C 293.577 101.655,293.932 100.445,294.186 99.936 C 294.440 99.426,294.805 97.863,294.997 96.461 C 295.189 95.060,295.470 93.680,295.623 93.395 C 295.775 93.110,296.174 91.325,296.509 89.428 C 296.844 87.531,297.356 85.520,297.646 84.959 C 297.985 84.303,298.269 82.635,298.441 80.292 C 298.587 78.286,298.943 75.447,299.231 73.981 C 299.997 70.086,299.981 51.829,299.210 49.060 C 298.921 48.025,298.567 46.176,298.422 44.950 C 298.237 43.380,297.919 42.366,297.348 41.524 C 296.901 40.866,296.447 39.972,296.337 39.537 C 296.091 38.557,294.584 35.665,293.732 34.538 C 292.773 33.269,288.912 29.473,288.578 29.470 C 288.417 29.468,287.994 29.211,287.638 28.898 C 287.282 28.585,285.933 27.854,284.639 27.275 C 283.346 26.696,281.936 25.965,281.505 25.651 C 279.007 23.831,270.920 22.730,263.793 23.239 M276.207 98.354 C 276.266 100.511,276.129 101.585,275.689 102.434 C 275.449 102.896,275.168 103.913,275.064 104.694 C 274.743 107.105,271.169 118.595,269.600 122.257 C 269.267 123.033,268.551 124.726,268.009 126.019 C 265.875 131.107,263.324 136.364,262.988 136.364 C 262.827 136.364,262.696 136.551,262.696 136.781 C 262.696 137.356,260.264 142.101,258.894 144.201 C 258.275 145.149,257.360 146.757,256.862 147.775 C 252.369 156.950,242.074 156.620,237.147 147.144 C 236.066 145.063,233.106 140.960,231.132 138.807 C 229.412 136.929,229.539 135.650,231.751 132.592 C 233.209 130.577,233.900 129.447,235.003 127.273 C 235.658 125.980,236.494 124.498,236.860 123.981 C 237.227 123.464,237.935 122.128,238.434 121.013 C 239.206 119.289,240.909 115.857,242.483 112.853 C 243.029 111.809,244.124 108.854,244.398 107.680 C 244.519 107.163,244.955 106.316,245.366 105.799 C 246.217 104.729,247.484 101.839,248.107 99.548 C 248.785 97.057,248.027 97.179,262.913 97.179 L 276.176 97.179 276.207 98.354 M218.729 114.498 C 218.260 118.862,216.557 122.230,212.853 126.122 L 210.815 128.263 207.524 127.900 C 203.624 127.470,197.789 127.920,194.916 128.873 C 192.753 129.590,192.050 129.616,191.536 128.997 C 191.322 128.739,190.245 127.884,189.144 127.098 C 187.363 125.827,184.013 122.011,184.013 121.253 C 184.013 121.097,183.660 120.451,183.229 119.817 C 182.455 118.677,182.037 113.993,182.654 113.375 C 182.769 113.260,190.965 113.166,200.868 113.166 L 218.872 113.166 218.729 114.498 " stroke="none" fill="#f39c3e" fill-rule="evenodd"></path><path id="path3" d="M0.000 156.740 L 0.000 313.480 200.000 313.480 L 400.000 313.480 400.000 156.740 L 400.000 0.000 200.000 0.000 L 0.000 0.000 0.000 156.740 M272.036 21.434 C 272.210 21.541,273.649 21.763,275.234 21.927 C 277.027 22.112,278.583 22.468,279.350 22.868 C 280.029 23.222,280.744 23.511,280.941 23.511 C 281.309 23.511,284.465 24.921,286.677 26.073 C 291.137 28.397,296.247 33.761,297.660 37.601 C 297.885 38.214,298.363 39.274,298.721 39.957 C 299.080 40.640,299.373 41.420,299.373 41.692 C 299.373 41.963,299.648 42.967,299.984 43.923 C 302.178 50.164,302.318 68.008,300.259 78.840 C 299.898 80.737,299.482 83.307,299.334 84.552 C 299.186 85.796,298.789 87.630,298.451 88.627 C 298.113 89.623,297.689 91.541,297.508 92.888 C 297.327 94.235,297.048 95.583,296.888 95.883 C 296.727 96.183,296.357 97.620,296.066 99.076 C 295.774 100.533,295.277 102.266,294.961 102.927 C 294.646 103.589,294.294 104.788,294.179 105.592 C 294.064 106.396,293.725 107.688,293.426 108.464 C 293.127 109.240,292.666 110.721,292.401 111.755 C 291.834 113.976,290.775 117.148,289.942 119.122 C 289.615 119.898,289.213 121.097,289.049 121.787 C 288.749 123.049,287.708 125.929,285.877 130.564 C 285.332 131.944,284.673 133.707,284.412 134.483 C 283.526 137.121,282.388 139.966,281.831 140.935 C 281.525 141.466,281.097 142.453,280.880 143.129 C 280.663 143.805,280.304 144.569,280.084 144.828 C 279.863 145.086,279.516 145.933,279.314 146.708 C 279.112 147.484,278.745 148.432,278.500 148.814 C 278.256 149.197,277.768 150.277,277.417 151.215 C 277.066 152.153,276.573 153.092,276.320 153.301 C 276.068 153.511,275.862 153.890,275.862 154.144 C 275.862 154.785,271.487 163.463,267.724 170.286 C 266.472 172.557,267.372 173.986,271.370 176.071 C 271.755 176.272,272.253 176.592,272.477 176.782 C 272.966 177.196,274.329 178.152,277.273 180.143 C 278.480 180.960,279.608 181.741,279.781 181.880 C 281.184 183.007,285.118 185.602,286.520 186.324 C 287.469 186.812,288.668 187.594,289.185 188.060 C 290.348 189.110,292.367 190.596,292.630 190.596 C 293.039 190.596,296.552 193.142,296.552 193.439 C 296.552 193.610,296.799 193.852,297.100 193.976 C 298.206 194.429,300.821 196.072,302.194 197.175 C 302.970 197.799,304.310 198.753,305.172 199.295 C 307.875 200.996,309.497 202.947,311.033 206.348 C 311.247 206.822,311.530 207.210,311.661 207.210 C 311.792 207.210,312.171 207.739,312.503 208.386 C 312.834 209.032,313.472 209.984,313.919 210.502 C 314.367 211.019,314.733 211.667,314.733 211.942 C 314.733 212.217,315.086 212.852,315.517 213.352 C 315.948 213.853,316.300 214.422,316.301 214.617 C 316.301 214.811,316.524 215.155,316.796 215.381 C 317.068 215.607,317.634 216.435,318.054 217.222 C 319.139 219.253,321.708 223.357,322.318 224.035 C 322.602 224.350,323.367 225.666,324.019 226.959 C 324.671 228.252,325.371 229.451,325.575 229.624 C 326.187 230.143,328.213 233.270,328.213 233.696 C 328.213 233.914,328.433 234.275,328.701 234.498 C 328.970 234.721,329.392 235.337,329.640 235.868 C 329.887 236.399,330.725 237.724,331.501 238.811 C 332.277 239.899,332.996 241.119,333.097 241.524 C 333.199 241.929,333.623 242.580,334.039 242.972 C 334.456 243.363,334.796 243.853,334.796 244.060 C 334.796 244.268,335.018 244.622,335.289 244.847 C 335.561 245.072,336.073 245.830,336.429 246.531 C 336.784 247.232,337.181 247.876,337.310 247.962 C 337.758 248.261,339.185 251.532,339.185 252.261 C 339.185 253.137,338.389 253.498,335.584 253.896 C 334.507 254.048,333.150 254.419,332.569 254.719 C 331.988 255.020,330.343 255.384,328.914 255.529 C 327.484 255.674,325.874 256.020,325.335 256.299 C 324.776 256.588,323.265 256.869,321.817 256.952 C 320.097 257.051,318.893 257.303,318.083 257.734 C 317.425 258.084,316.014 258.443,314.948 258.531 C 313.700 258.635,312.528 258.968,311.658 259.465 C 310.867 259.916,309.565 260.310,308.523 260.413 C 307.542 260.510,306.221 260.849,305.587 261.167 C 304.954 261.485,303.614 261.833,302.609 261.941 C 301.605 262.048,300.086 262.474,299.233 262.887 C 298.380 263.299,297.343 263.636,296.928 263.636 C 296.512 263.636,295.502 263.973,294.682 264.385 C 293.862 264.797,292.587 265.236,291.850 265.361 C 291.112 265.485,289.928 265.850,289.219 266.172 C 288.511 266.494,287.647 266.760,287.299 266.764 C 286.952 266.768,286.175 267.035,285.574 267.358 C 284.972 267.680,283.894 268.043,283.179 268.164 C 282.464 268.285,281.417 268.724,280.852 269.141 C 280.288 269.558,279.322 269.990,278.706 270.101 C 278.090 270.213,277.092 270.550,276.489 270.851 C 275.886 271.151,274.898 271.500,274.295 271.627 C 273.691 271.753,272.976 272.052,272.705 272.290 C 272.433 272.529,271.538 272.926,270.716 273.174 C 269.893 273.422,268.986 273.828,268.701 274.077 C 268.415 274.325,267.618 274.709,266.928 274.928 C 266.238 275.148,265.182 275.589,264.581 275.908 C 263.981 276.228,263.372 276.489,263.229 276.489 C 262.918 276.489,259.098 278.233,257.994 278.879 C 257.563 279.132,256.364 279.714,255.329 280.175 C 254.295 280.635,252.693 281.404,251.771 281.885 C 250.848 282.365,249.963 282.759,249.804 282.759 C 249.645 282.759,248.810 283.243,247.949 283.836 C 247.088 284.428,245.575 285.301,244.587 285.776 C 243.599 286.251,242.454 286.895,242.042 287.207 C 241.631 287.519,241.051 287.774,240.753 287.774 C 240.455 287.774,239.686 288.192,239.044 288.702 C 238.402 289.213,237.571 289.727,237.198 289.845 C 236.825 289.963,235.674 290.587,234.639 291.233 C 233.605 291.878,232.411 292.512,231.987 292.640 C 231.562 292.769,230.973 293.183,230.676 293.560 C 230.380 293.936,229.140 294.704,227.921 295.266 C 226.702 295.828,225.705 296.425,225.705 296.592 C 225.705 296.760,225.247 297.093,224.687 297.333 C 224.126 297.572,222.684 298.482,221.482 299.354 C 220.280 300.227,219.141 300.940,218.950 300.940 C 218.760 300.940,217.581 301.716,216.329 302.665 C 214.447 304.090,213.835 304.389,212.795 304.389 C 211.542 304.389,209.404 303.597,209.404 303.133 C 209.404 302.999,209.077 302.807,208.676 302.707 C 208.276 302.606,207.394 302.147,206.717 301.686 C 206.040 301.225,204.564 300.385,203.438 299.819 C 202.311 299.252,201.126 298.497,200.803 298.140 C 200.480 297.784,200.013 297.492,199.765 297.492 C 199.516 297.492,198.880 297.184,198.351 296.807 C 197.822 296.431,196.455 295.675,195.313 295.127 C 194.171 294.580,193.030 293.934,192.778 293.692 C 192.526 293.451,190.274 292.218,187.774 290.953 C 185.274 289.688,183.158 288.558,183.072 288.442 C 182.986 288.327,181.998 287.796,180.878 287.264 C 177.200 285.518,173.525 283.725,172.727 283.289 C 170.088 281.844,168.639 281.191,168.076 281.191 C 167.723 281.191,167.355 281.061,167.257 280.902 C 167.158 280.744,166.410 280.366,165.592 280.063 C 164.775 279.760,163.754 279.274,163.323 278.984 C 162.892 278.694,162.021 278.289,161.389 278.084 C 160.756 277.879,160.081 277.521,159.889 277.289 C 159.696 277.058,159.015 276.771,158.374 276.652 C 157.734 276.534,156.787 276.181,156.270 275.870 C 155.752 275.558,154.835 275.204,154.232 275.084 C 153.629 274.963,152.636 274.542,152.026 274.149 C 151.416 273.755,150.470 273.335,149.924 273.215 C 149.379 273.095,148.601 272.737,148.196 272.418 C 147.790 272.099,146.902 271.737,146.222 271.613 C 145.541 271.490,144.491 271.146,143.887 270.849 C 143.284 270.553,142.299 270.216,141.698 270.101 C 141.097 269.986,140.092 269.552,139.465 269.137 C 138.837 268.722,137.810 268.285,137.183 268.168 C 136.556 268.050,135.521 267.688,134.883 267.363 C 134.245 267.037,133.436 266.768,133.084 266.764 C 132.733 266.760,131.879 266.500,131.188 266.186 C 130.497 265.872,129.368 265.512,128.680 265.386 C 127.992 265.260,126.865 264.834,126.176 264.439 C 125.486 264.044,124.237 263.647,123.400 263.557 C 122.563 263.466,121.505 263.118,121.049 262.782 C 120.593 262.446,119.461 262.082,118.534 261.974 C 117.607 261.865,116.527 261.565,116.133 261.307 C 115.739 261.049,114.563 260.700,113.518 260.532 C 112.473 260.364,111.002 259.865,110.249 259.423 C 109.333 258.886,108.416 258.621,107.479 258.621 C 106.644 258.621,105.454 258.318,104.529 257.871 C 103.676 257.458,102.183 257.047,101.211 256.956 C 100.239 256.866,99.020 256.573,98.501 256.305 C 97.983 256.037,96.592 255.690,95.410 255.533 C 94.227 255.377,92.555 254.963,91.693 254.613 C 90.831 254.263,89.279 253.824,88.245 253.636 C 85.470 253.133,84.781 251.561,86.313 249.233 C 86.717 248.620,87.316 247.714,87.646 247.218 C 89.461 244.486,89.993 243.608,90.553 242.417 C 90.893 241.695,91.464 240.920,91.824 240.696 C 92.183 240.472,92.476 240.057,92.476 239.775 C 92.476 239.493,92.710 239.068,92.995 238.832 C 93.280 238.595,93.671 238.049,93.864 237.618 C 94.589 236.000,96.309 233.229,96.588 233.229 C 96.748 233.229,97.046 232.841,97.251 232.367 C 97.808 231.079,101.195 225.764,102.564 224.031 C 103.223 223.197,103.762 222.320,103.762 222.083 C 103.762 221.846,104.150 221.189,104.624 220.622 C 105.098 220.056,105.684 219.240,105.926 218.809 C 106.168 218.378,106.563 217.720,106.805 217.348 C 107.203 216.736,107.175 216.621,106.522 216.160 C 100.588 211.970,96.342 208.177,93.488 204.519 C 93.096 204.016,92.375 203.111,91.886 202.508 C 91.396 201.904,90.730 200.939,90.404 200.362 C 90.078 199.785,89.459 198.707,89.028 197.966 C 87.330 195.045,86.040 192.582,85.662 191.536 C 85.444 190.933,85.129 190.157,84.963 189.812 C 84.797 189.467,84.387 188.409,84.050 187.461 C 83.714 186.513,82.863 184.122,82.158 182.148 C 81.454 180.173,80.878 178.230,80.878 177.829 C 80.878 177.428,80.588 176.293,80.235 175.306 C 79.881 174.319,79.468 172.359,79.316 170.952 C 79.165 169.544,78.811 167.947,78.529 167.403 C 78.248 166.859,77.813 164.766,77.562 162.752 C 77.312 160.738,76.900 158.315,76.647 157.366 C 76.394 156.418,76.041 153.599,75.862 151.102 C 75.684 148.605,75.293 145.431,74.995 144.049 C 74.237 140.543,74.238 127.829,74.997 125.705 C 75.274 124.929,75.658 122.973,75.849 121.358 C 76.041 119.743,76.386 118.051,76.617 117.597 C 76.848 117.143,77.269 115.967,77.551 114.985 C 77.834 114.002,78.197 113.116,78.359 113.016 C 78.521 112.916,79.099 111.929,79.643 110.823 C 82.297 105.432,89.085 99.873,94.984 98.259 C 95.415 98.141,96.332 97.793,97.022 97.486 C 97.712 97.178,99.263 96.827,100.470 96.706 C 101.677 96.584,103.511 96.290,104.545 96.052 C 106.980 95.494,109.956 95.496,112.180 96.059 C 113.154 96.306,114.787 96.607,115.810 96.729 C 121.059 97.357,123.390 99.606,123.561 104.208 L 123.680 107.416 125.232 109.056 C 126.086 109.958,127.610 111.136,128.619 111.673 C 130.982 112.933,132.599 114.797,134.220 118.129 L 135.521 120.806 135.520 126.625 L 135.518 132.445 134.444 134.639 C 132.305 139.006,128.977 142.529,125.376 144.239 L 123.824 144.976 123.824 147.579 C 123.824 149.532,123.976 150.478,124.430 151.368 C 124.762 152.020,125.134 153.461,125.256 154.569 C 125.378 155.677,125.811 157.248,126.218 158.062 C 126.626 158.875,126.960 159.721,126.960 159.943 C 126.962 160.648,128.989 164.391,129.810 165.204 C 132.284 167.653,132.813 167.868,136.364 167.868 C 143.863 167.868,152.683 162.211,162.539 151.078 C 168.737 144.078,173.811 139.130,177.429 136.558 C 181.756 133.484,186.426 130.721,187.298 130.721 C 187.502 130.721,187.867 130.351,188.109 129.898 C 188.540 129.092,188.499 129.028,186.153 126.842 C 179.789 120.911,177.487 111.667,180.688 104.900 C 181.137 103.951,181.505 103.091,181.505 102.990 C 181.505 102.703,183.614 99.708,184.579 98.624 C 193.296 88.833,210.235 89.780,217.549 100.469 C 223.060 108.521,222.049 120.499,215.387 126.105 C 214.042 127.237,214.608 127.818,218.203 128.997 C 219.140 129.304,220.259 129.799,220.690 130.097 C 221.121 130.395,221.826 130.747,222.257 130.879 C 222.688 131.011,224.142 131.742,225.487 132.503 C 228.871 134.418,229.033 134.322,232.166 128.549 C 232.874 127.244,234.050 125.135,234.780 123.863 C 235.509 122.592,236.292 121.040,236.518 120.415 C 237.211 118.506,238.590 115.544,239.016 115.047 C 239.238 114.788,239.596 114.013,239.812 113.323 C 240.028 112.633,240.390 111.855,240.617 111.594 C 240.845 111.332,241.182 110.442,241.367 109.615 C 241.553 108.787,241.912 107.794,242.166 107.406 C 242.420 107.019,242.831 106.027,243.079 105.202 C 243.327 104.377,243.752 103.457,244.023 103.158 C 244.294 102.858,244.659 101.838,244.834 100.891 C 245.009 99.945,245.432 98.621,245.774 97.951 C 246.115 97.281,246.395 96.290,246.395 95.749 C 246.395 94.546,246.951 92.818,247.569 92.103 C 247.857 91.769,248.118 90.431,248.272 88.498 C 248.407 86.807,248.757 84.607,249.049 83.610 C 249.667 81.502,249.571 78.522,248.800 75.862 C 248.525 74.914,248.228 73.776,248.140 73.334 C 247.944 72.353,245.412 69.655,243.629 68.531 C 242.209 67.634,240.147 65.565,240.134 65.022 C 240.129 64.836,239.667 63.991,239.107 63.145 L 238.088 61.605 238.117 53.921 C 238.142 47.448,238.232 46.016,238.688 44.828 C 238.985 44.052,239.483 42.622,239.794 41.650 C 240.910 38.164,242.419 36.576,246.694 34.390 C 249.860 32.771,251.667 30.875,254.518 26.179 C 255.856 23.975,258.182 22.348,260.552 21.958 C 261.472 21.807,262.861 21.534,263.636 21.351 C 265.978 20.799,271.091 20.850,272.036 21.434 M202.101 32.367 C 202.945 33.293,203.611 34.826,204.195 37.189 C 205.144 41.025,210.568 48.454,213.224 49.554 C 213.709 49.755,214.107 50.015,214.107 50.132 C 214.107 50.249,214.600 50.523,215.204 50.741 C 215.807 50.959,216.689 51.460,217.163 51.854 C 217.637 52.248,218.638 52.666,219.386 52.782 C 220.135 52.899,221.293 53.273,221.960 53.613 C 222.627 53.954,223.445 54.232,223.777 54.232 C 224.739 54.232,225.709 55.235,225.900 56.426 C 226.227 58.472,225.168 59.220,219.279 61.100 C 216.043 62.133,213.522 63.523,211.758 65.247 C 210.898 66.089,209.981 66.850,209.721 66.939 C 208.682 67.295,204.485 74.643,204.070 76.832 C 203.374 80.501,201.860 82.119,199.533 81.683 C 198.067 81.408,196.683 78.796,196.097 75.200 C 195.996 74.577,195.633 73.814,195.292 73.505 C 194.950 73.196,194.671 72.821,194.671 72.671 C 194.671 72.102,190.918 66.771,190.517 66.771 C 190.367 66.771,189.512 66.088,188.618 65.252 C 186.460 63.238,182.393 61.189,179.553 60.684 C 176.531 60.146,174.295 58.518,174.295 56.854 C 174.295 55.628,175.438 54.232,176.444 54.232 C 176.779 54.232,177.808 53.881,178.731 53.451 C 179.653 53.022,180.776 52.669,181.227 52.668 C 181.678 52.666,182.384 52.402,182.795 52.081 C 183.206 51.760,184.318 51.131,185.266 50.684 C 188.566 49.127,192.571 45.079,194.520 41.330 C 194.937 40.527,195.427 39.821,195.609 39.761 C 195.790 39.700,196.057 38.946,196.201 38.085 C 196.859 34.170,198.465 31.661,200.313 31.661 C 201.101 31.661,201.659 31.881,202.101 32.367 " stroke="none" fill="#fbfbfb" fill-rule="evenodd"></path><path id="path4" d="M198.985 33.150 C 198.467 33.737,197.047 37.162,196.678 38.715 C 196.556 39.232,196.023 40.431,195.494 41.379 C 191.708 48.175,186.694 51.891,177.947 54.385 C 173.483 55.658,174.516 58.695,179.816 59.883 C 184.761 60.991,190.902 65.290,193.808 69.676 C 195.848 72.758,196.068 73.201,197.231 76.592 C 199.446 83.044,201.793 82.821,203.575 75.989 C 205.461 68.763,213.228 61.390,220.848 59.592 C 226.736 58.203,226.579 55.919,220.460 53.940 C 218.259 53.228,216.105 52.371,215.674 52.035 C 215.243 51.699,214.775 51.421,214.634 51.418 C 214.493 51.414,213.859 51.027,213.224 50.559 C 207.893 46.628,204.984 42.556,203.163 36.475 C 202.098 32.916,200.392 31.559,198.985 33.150 M202.484 36.039 C 203.015 37.413,203.449 38.719,203.449 38.940 C 203.450 39.498,205.188 42.755,206.595 44.837 C 209.655 49.364,215.359 53.122,222.040 55.012 C 226.042 56.145,224.859 58.335,219.665 59.410 C 213.031 60.783,205.428 68.322,203.072 75.862 C 201.478 80.967,199.549 82.318,198.598 78.997 C 198.049 77.080,196.347 72.795,195.772 71.885 C 195.425 71.335,194.789 70.303,194.359 69.590 C 191.857 65.447,185.385 60.839,180.251 59.545 C 176.628 58.631,175.348 57.669,175.872 56.252 C 176.155 55.487,176.758 55.194,180.721 53.901 C 189.528 51.025,194.663 45.950,197.769 37.052 C 199.545 31.962,200.808 31.691,202.484 36.039 M265.674 173.668 C 265.781 173.840,266.054 173.981,266.281 173.981 C 266.508 173.981,266.867 174.190,267.079 174.445 C 267.291 174.700,268.401 175.535,269.547 176.301 C 270.693 177.067,273.252 178.826,275.235 180.211 C 280.247 183.710,283.363 185.809,286.834 188.025 C 288.472 189.071,290.024 190.131,290.282 190.380 C 290.541 190.630,291.740 191.489,292.947 192.290 C 294.154 193.090,296.763 194.872,298.746 196.250 C 300.729 197.627,303.319 199.417,304.503 200.226 C 306.689 201.723,307.872 203.063,309.561 205.959 C 310.078 206.846,310.809 208.019,311.184 208.566 C 311.560 209.114,312.390 210.478,313.030 211.599 C 313.669 212.719,314.437 213.918,314.736 214.263 C 315.035 214.608,315.474 215.261,315.712 215.715 C 316.201 216.648,319.467 221.962,320.762 223.933 C 321.232 224.649,321.762 225.562,321.938 225.962 C 322.114 226.362,322.610 227.151,323.041 227.716 C 323.472 228.280,323.824 228.847,323.824 228.975 C 323.824 229.103,324.226 229.795,324.717 230.513 C 325.207 231.231,326.313 232.947,327.175 234.326 C 328.036 235.705,329.010 237.238,329.339 237.732 C 329.668 238.226,330.607 239.707,331.425 241.024 C 332.243 242.340,333.160 243.815,333.462 244.301 C 333.765 244.788,334.753 246.311,335.659 247.686 C 338.205 251.551,337.913 252.962,334.562 252.973 C 333.830 252.976,332.402 253.265,331.388 253.616 C 330.375 253.967,328.505 254.376,327.234 254.525 C 325.962 254.675,324.414 255.015,323.794 255.282 C 323.174 255.549,321.517 255.912,320.112 256.088 C 318.708 256.264,317.143 256.623,316.635 256.886 C 316.127 257.149,314.739 257.502,313.552 257.670 C 312.364 257.838,310.769 258.259,310.007 258.605 C 309.244 258.951,308.151 259.237,307.577 259.241 C 307.003 259.245,305.663 259.589,304.599 260.005 C 303.535 260.422,302.030 260.857,301.254 260.972 C 300.478 261.088,299.313 261.451,298.664 261.779 C 298.015 262.107,296.887 262.468,296.156 262.580 C 295.425 262.692,294.312 263.043,293.681 263.359 C 293.050 263.675,291.922 264.027,291.173 264.142 C 290.424 264.257,289.318 264.596,288.715 264.895 C 288.111 265.193,286.814 265.669,285.831 265.952 C 284.848 266.235,283.967 266.591,283.873 266.744 C 283.778 266.897,282.960 267.198,282.054 267.414 C 281.149 267.630,280.125 267.985,279.781 268.203 C 279.436 268.420,278.412 268.815,277.506 269.079 C 276.599 269.344,275.545 269.779,275.163 270.046 C 274.781 270.314,274.253 270.533,273.990 270.534 C 273.726 270.535,272.665 270.957,271.630 271.473 C 270.596 271.989,269.576 272.412,269.364 272.413 C 268.983 272.414,267.104 273.228,263.480 274.962 C 262.445 275.457,261.458 275.865,261.285 275.869 C 261.113 275.873,260.619 276.152,260.188 276.489 C 259.757 276.826,259.204 277.105,258.959 277.109 C 258.535 277.116,254.913 278.713,253.918 279.332 C 253.660 279.493,252.743 279.974,251.881 280.400 C 251.019 280.827,250.102 281.317,249.843 281.490 C 249.585 281.662,248.879 282.021,248.276 282.287 C 246.806 282.936,241.994 285.600,241.053 286.285 C 240.638 286.587,240.139 286.834,239.943 286.834 C 239.746 286.834,239.087 287.172,238.477 287.586 C 237.868 288.000,237.037 288.443,236.631 288.572 C 236.225 288.700,235.470 289.118,234.953 289.501 C 233.965 290.232,230.621 292.197,228.554 293.260 C 227.884 293.605,227.075 294.117,226.756 294.398 C 226.437 294.679,225.752 295.143,225.235 295.429 C 223.158 296.579,221.023 297.941,217.085 300.630 C 213.301 303.214,213.347 303.191,212.279 303.020 C 211.706 302.928,209.801 301.977,208.048 300.906 C 206.294 299.836,204.224 298.607,203.448 298.176 C 201.365 297.018,199.963 296.210,197.915 294.987 C 195.865 293.764,194.321 292.913,192.006 291.731 C 191.144 291.291,188.464 289.875,186.050 288.585 C 183.636 287.295,180.603 285.725,179.310 285.097 C 171.882 281.486,169.242 280.223,167.555 279.472 C 166.520 279.012,165.110 278.377,164.420 278.063 C 163.730 277.748,161.967 276.970,160.502 276.334 C 159.036 275.699,157.324 274.909,156.697 274.580 C 156.070 274.251,155.365 273.980,155.130 273.978 C 154.895 273.977,153.997 273.628,153.135 273.204 C 152.273 272.780,151.356 272.428,151.097 272.422 C 150.839 272.416,150.200 272.151,149.679 271.833 C 149.158 271.515,148.170 271.079,147.485 270.863 C 146.799 270.647,145.665 270.203,144.964 269.875 C 144.263 269.547,143.481 269.279,143.227 269.279 C 142.974 269.279,142.207 268.990,141.524 268.636 C 140.841 268.282,139.553 267.799,138.662 267.563 C 137.770 267.326,136.712 266.927,136.310 266.677 C 135.909 266.427,134.945 266.069,134.169 265.881 C 133.393 265.693,132.200 265.252,131.517 264.901 C 130.834 264.550,130.018 264.263,129.705 264.263 C 129.391 264.263,128.297 263.911,127.273 263.480 C 126.249 263.049,125.019 262.692,124.539 262.686 C 124.060 262.681,122.962 262.329,122.100 261.905 C 121.238 261.481,120.211 261.133,119.818 261.131 C 119.425 261.130,118.296 260.792,117.310 260.380 C 116.324 259.969,114.882 259.528,114.107 259.402 C 113.331 259.276,112.202 258.924,111.599 258.620 C 110.995 258.317,109.726 257.967,108.777 257.843 C 107.829 257.720,106.451 257.357,105.714 257.037 C 104.978 256.717,103.615 256.315,102.685 256.143 C 101.756 255.971,100.462 255.608,99.809 255.335 C 99.156 255.062,97.654 254.702,96.471 254.534 C 95.288 254.366,93.905 254.014,93.397 253.752 C 92.889 253.489,91.466 253.147,90.235 252.993 C 88.657 252.795,87.804 252.520,87.348 252.064 L 86.700 251.416 87.570 249.768 C 88.049 248.861,88.852 247.484,89.354 246.708 C 89.856 245.933,90.703 244.592,91.237 243.730 C 92.262 242.074,95.045 237.711,96.053 236.177 C 96.383 235.676,96.982 234.737,97.386 234.091 C 97.789 233.444,98.451 232.386,98.856 231.740 C 99.261 231.093,100.032 229.859,100.570 228.997 C 101.108 228.135,102.161 226.583,102.911 225.549 C 103.661 224.514,104.828 222.751,105.504 221.630 C 106.180 220.509,107.122 219.042,107.598 218.370 C 108.500 217.096,108.660 216.614,108.181 216.614 C 108.026 216.614,107.742 217.002,107.551 217.476 C 107.213 218.318,105.844 220.456,101.441 227.023 C 99.311 230.201,98.859 230.900,96.926 234.013 C 96.391 234.875,95.700 235.933,95.390 236.364 C 95.081 236.795,94.277 238.064,93.603 239.185 C 92.930 240.306,92.048 241.621,91.644 242.109 C 91.240 242.596,90.909 243.147,90.909 243.333 C 90.909 243.519,90.585 244.108,90.189 244.641 C 85.522 250.930,85.418 252.779,89.703 253.260 C 91.001 253.405,92.414 253.755,92.844 254.037 C 93.275 254.319,94.602 254.677,95.795 254.832 C 96.987 254.987,98.597 255.396,99.373 255.739 C 100.149 256.083,101.560 256.466,102.508 256.589 C 103.456 256.713,104.726 257.061,105.329 257.364 C 105.933 257.666,107.248 258.013,108.253 258.136 C 109.257 258.258,110.809 258.698,111.701 259.113 C 112.593 259.529,113.645 259.870,114.038 259.872 C 114.431 259.873,115.590 260.227,116.614 260.658 C 117.639 261.089,118.839 261.442,119.282 261.442 C 119.725 261.442,120.662 261.735,121.365 262.093 C 122.067 262.452,123.296 262.859,124.095 262.999 C 124.895 263.139,126.254 263.534,127.116 263.876 C 128.662 264.491,130.470 265.131,133.229 266.042 C 134.005 266.298,135.274 266.772,136.050 267.095 C 136.826 267.418,137.955 267.778,138.558 267.894 C 139.161 268.011,139.987 268.367,140.392 268.685 C 140.798 269.002,141.644 269.356,142.273 269.470 C 142.902 269.584,144.082 270.011,144.896 270.419 C 145.709 270.826,146.597 271.160,146.869 271.160 C 147.141 271.160,148.027 271.513,148.836 271.944 C 149.646 272.375,150.470 272.727,150.668 272.727 C 150.865 272.727,151.924 273.131,153.021 273.625 C 154.118 274.119,155.933 274.898,157.053 275.358 C 158.174 275.817,159.585 276.451,160.188 276.765 C 160.792 277.080,161.700 277.439,162.207 277.561 C 162.713 277.684,163.511 278.057,163.979 278.391 C 164.447 278.724,164.970 278.997,165.141 278.997 C 166.038 278.997,188.410 290.096,190.588 291.621 C 191.014 291.919,191.596 292.163,191.881 292.163 C 192.166 292.163,192.564 292.361,192.765 292.603 C 192.965 292.845,193.864 293.416,194.762 293.873 C 195.660 294.330,196.959 295.047,197.649 295.466 C 198.339 295.886,199.467 296.517,200.157 296.868 C 201.801 297.706,204.558 299.349,206.674 300.754 C 207.608 301.374,208.560 301.881,208.790 301.881 C 209.019 301.881,209.529 302.183,209.923 302.553 C 210.386 302.988,211.191 303.278,212.210 303.376 C 213.856 303.534,213.859 303.533,216.458 301.589 C 217.147 301.074,218.135 300.455,218.652 300.215 C 219.169 299.974,220.252 299.273,221.057 298.656 C 221.863 298.038,222.921 297.327,223.408 297.075 C 223.896 296.823,225.282 295.967,226.489 295.174 C 227.696 294.381,228.833 293.731,229.016 293.731 C 229.199 293.731,229.622 293.477,229.957 293.167 C 230.589 292.580,236.429 289.173,239.812 287.416 C 240.243 287.192,242.077 286.181,243.887 285.169 C 248.271 282.718,248.375 282.663,251.173 281.344 C 252.508 280.714,253.674 280.080,253.764 279.934 C 253.854 279.789,254.454 279.499,255.098 279.290 C 255.743 279.081,256.622 278.666,257.053 278.368 C 257.484 278.069,258.190 277.728,258.621 277.608 C 259.052 277.489,260.110 277.062,260.972 276.659 C 261.834 276.256,263.315 275.573,264.263 275.141 C 265.212 274.710,266.768 274.000,267.722 273.565 C 268.676 273.130,269.875 272.674,270.386 272.552 C 270.898 272.429,271.528 272.150,271.787 271.931 C 272.045 271.711,272.879 271.366,273.639 271.163 C 274.400 270.961,275.328 270.595,275.702 270.350 C 276.076 270.104,277.147 269.679,278.081 269.404 C 279.016 269.129,279.992 268.719,280.251 268.491 C 280.509 268.264,281.283 267.974,281.971 267.846 C 282.658 267.718,283.928 267.285,284.792 266.882 C 285.656 266.480,286.616 266.149,286.925 266.147 C 287.233 266.146,288.040 265.862,288.717 265.516 C 289.394 265.171,290.693 264.734,291.604 264.545 C 292.515 264.356,293.581 263.998,293.973 263.750 C 294.365 263.502,295.433 263.161,296.347 262.992 C 297.261 262.823,298.557 262.405,299.227 262.063 C 299.898 261.722,300.843 261.442,301.328 261.442 C 301.813 261.442,303.018 261.145,304.005 260.782 C 304.992 260.419,306.575 259.990,307.524 259.828 C 308.472 259.666,309.812 259.269,310.502 258.945 C 311.191 258.621,312.750 258.207,313.967 258.025 C 315.183 257.843,316.593 257.491,317.101 257.242 C 317.609 256.994,319.226 256.648,320.695 256.472 C 322.163 256.297,323.997 255.884,324.770 255.555 C 325.543 255.226,327.188 254.873,328.425 254.771 C 329.662 254.669,331.137 254.346,331.703 254.054 C 332.270 253.761,333.788 253.403,335.077 253.258 C 338.812 252.839,338.975 251.656,335.912 247.187 C 335.088 245.985,334.285 244.715,334.127 244.366 C 333.969 244.016,333.526 243.289,333.142 242.749 C 332.400 241.704,330.349 238.532,329.310 236.820 C 327.464 233.780,325.508 230.775,324.865 229.992 C 324.465 229.504,324.138 228.948,324.138 228.755 C 324.138 228.562,323.761 227.832,323.300 227.133 C 322.306 225.626,321.421 224.213,320.185 222.165 C 319.687 221.338,318.538 219.521,317.633 218.126 C 316.728 216.732,315.987 215.511,315.987 215.414 C 315.987 215.317,315.660 214.736,315.260 214.123 C 312.260 209.528,311.029 207.574,310.705 206.897 C 310.315 206.078,309.488 204.848,307.791 202.560 C 307.237 201.813,305.857 200.579,304.724 199.817 C 301.723 197.799,298.946 195.880,295.925 193.739 C 292.217 191.112,289.570 189.296,286.898 187.547 C 282.313 184.546,279.093 182.389,276.332 180.469 C 274.781 179.389,272.100 177.538,270.376 176.356 C 268.652 175.173,267.019 174.014,266.746 173.780 C 266.173 173.287,265.388 173.205,265.674 173.668 " stroke="none" fill="#9c9dd7" fill-rule="evenodd"></path><path id="path5" d="M199.684 33.328 C 199.115 33.612,198.661 34.495,197.769 37.052 C 194.663 45.950,189.528 51.025,180.721 53.901 C 176.758 55.194,176.155 55.487,175.872 56.252 C 175.348 57.669,176.628 58.631,180.251 59.545 C 185.385 60.839,191.857 65.447,194.359 69.590 C 194.789 70.303,195.425 71.335,195.772 71.885 C 196.347 72.795,198.049 77.080,198.598 78.997 C 199.549 82.318,201.478 80.967,203.072 75.862 C 205.428 68.322,213.031 60.783,219.665 59.410 C 224.859 58.335,226.042 56.145,222.040 55.012 C 215.359 53.122,209.655 49.364,206.595 44.837 C 205.188 42.755,203.450 39.498,203.449 38.940 C 203.447 38.041,201.483 33.519,200.976 33.248 C 200.620 33.058,200.171 33.086,199.684 33.328 M200.849 34.248 C 201.013 34.463,201.539 35.839,202.018 37.304 C 203.960 43.255,208.851 49.910,212.738 51.890 C 213.405 52.230,214.349 52.825,214.836 53.213 C 215.323 53.601,215.926 53.918,216.174 53.918 C 216.423 53.918,217.405 54.334,218.356 54.841 C 219.307 55.349,220.715 55.859,221.485 55.974 C 223.976 56.348,222.310 57.823,218.122 58.950 C 211.615 60.702,204.948 67.847,202.192 76.019 C 201.147 79.119,200.949 79.477,200.228 79.564 C 199.394 79.664,199.308 79.532,198.912 77.558 C 197.860 72.306,193.036 65.668,187.723 62.163 C 186.330 61.244,182.822 59.581,181.829 59.370 C 180.606 59.110,177.320 57.928,176.881 57.591 C 175.671 56.662,176.500 55.904,179.686 55.028 C 180.669 54.758,181.559 54.398,181.664 54.228 C 181.769 54.058,182.095 53.918,182.389 53.918 C 183.416 53.918,188.604 51.152,189.985 49.867 C 193.408 46.684,194.293 45.703,195.129 44.166 C 195.620 43.265,196.226 42.288,196.477 41.996 C 197.032 41.347,198.576 37.557,198.899 36.050 C 199.338 33.998,200.113 33.282,200.849 34.248 M265.103 173.873 C 264.694 174.282,264.898 174.531,265.787 174.709 C 266.280 174.808,267.091 175.223,267.589 175.632 C 268.088 176.042,270.541 177.770,273.041 179.473 C 278.162 182.962,279.550 183.925,281.348 185.234 C 282.038 185.737,283.706 186.831,285.055 187.666 C 288.781 189.973,289.751 190.635,291.527 192.085 C 292.425 192.817,293.359 193.417,293.602 193.417 C 293.845 193.417,294.295 193.664,294.603 193.966 C 295.417 194.764,297.386 196.226,299.466 197.574 C 303.583 200.242,308.150 204.045,308.150 204.805 C 308.150 205.199,310.363 208.846,310.948 209.415 C 311.220 209.680,311.795 210.596,312.226 211.452 C 312.657 212.307,313.468 213.691,314.028 214.529 C 314.589 215.366,315.047 216.184,315.047 216.347 C 315.047 216.510,315.364 216.970,315.752 217.369 C 316.140 217.768,316.876 218.916,317.388 219.920 C 317.900 220.923,318.613 222.107,318.972 222.549 C 319.332 222.992,320.529 224.906,321.631 226.803 C 322.734 228.699,323.898 230.603,324.219 231.034 C 325.369 232.583,326.634 234.646,326.640 234.982 C 326.643 235.171,327.422 236.369,328.370 237.646 C 329.318 238.922,330.094 240.092,330.094 240.246 C 330.094 240.497,330.758 241.557,333.728 246.049 C 337.060 251.088,337.021 252.351,333.534 252.351 C 332.862 252.351,331.546 252.638,330.610 252.988 C 329.674 253.338,327.778 253.754,326.397 253.911 C 325.017 254.069,323.384 254.408,322.768 254.665 C 322.152 254.922,320.622 255.228,319.367 255.345 C 318.045 255.468,316.118 255.938,314.788 256.462 C 313.525 256.960,312.044 257.370,311.497 257.374 C 310.949 257.377,309.878 257.664,309.115 258.010 C 308.352 258.356,306.871 258.764,305.824 258.917 C 304.776 259.070,303.394 259.418,302.753 259.691 C 302.112 259.965,301.239 260.188,300.814 260.188 C 300.388 260.188,298.938 260.601,297.591 261.105 C 294.546 262.245,292.587 262.899,289.969 263.647 C 286.423 264.660,284.841 265.213,283.224 266.003 C 282.359 266.425,281.431 266.771,281.161 266.771 C 280.891 266.771,279.984 267.119,279.145 267.544 C 278.306 267.968,277.189 268.398,276.662 268.499 C 275.448 268.731,272.961 269.754,266.437 272.707 C 265.650 273.063,264.889 273.354,264.747 273.354 C 264.605 273.354,263.909 273.631,263.200 273.970 C 262.492 274.309,261.418 274.800,260.815 275.061 C 260.212 275.322,259.506 275.665,259.248 275.823 C 258.989 275.981,257.861 276.536,256.740 277.057 C 250.288 280.056,247.035 281.739,246.162 282.529 C 245.832 282.828,245.371 283.072,245.137 283.072 C 244.649 283.072,240.688 285.066,239.454 285.933 C 238.998 286.253,237.149 287.272,235.345 288.197 C 233.541 289.122,231.762 290.181,231.393 290.551 C 231.023 290.920,230.527 291.223,230.289 291.223 C 230.052 291.223,229.685 291.430,229.475 291.683 C 229.265 291.936,228.013 292.670,226.694 293.314 C 224.223 294.519,222.124 295.866,220.794 297.100 C 220.376 297.488,219.914 297.806,219.767 297.806 C 219.350 297.806,217.266 299.073,214.998 300.705 C 212.684 302.371,212.398 302.438,211.285 301.567 C 210.854 301.230,210.336 300.951,210.134 300.947 C 209.931 300.944,209.367 300.613,208.880 300.213 C 207.847 299.365,205.083 297.806,204.614 297.806 C 204.436 297.806,203.829 297.453,203.264 297.022 C 202.699 296.591,202.134 296.238,202.010 296.238 C 201.885 296.238,201.347 295.909,200.813 295.507 C 200.280 295.105,198.644 294.176,197.179 293.443 C 195.713 292.710,193.809 291.701,192.947 291.201 C 192.085 290.700,189.898 289.538,188.088 288.620 C 186.277 287.701,183.307 286.164,181.487 285.206 C 179.667 284.247,177.737 283.365,177.199 283.247 C 176.660 283.129,176.057 282.836,175.859 282.598 C 175.661 282.359,174.981 281.995,174.348 281.789 C 173.715 281.583,172.799 281.082,172.311 280.676 C 171.824 280.270,171.175 279.937,170.869 279.937 C 170.563 279.937,169.650 279.585,168.839 279.154 C 168.028 278.723,167.196 278.369,166.990 278.368 C 166.783 278.367,166.191 278.144,165.674 277.872 C 163.240 276.595,156.703 273.709,155.784 273.507 C 155.218 273.383,154.319 273.016,153.788 272.692 C 153.256 272.368,152.537 272.102,152.189 272.101 C 151.841 272.101,151.057 271.761,150.448 271.347 C 149.838 270.933,148.588 270.371,147.670 270.098 C 146.752 269.825,145.829 269.459,145.618 269.285 C 145.408 269.110,144.484 268.825,143.564 268.650 C 142.645 268.476,141.672 268.136,141.401 267.895 C 141.130 267.654,140.304 267.295,139.564 267.098 C 138.825 266.901,137.569 266.395,136.775 265.972 C 135.980 265.549,135.033 265.201,134.671 265.197 C 134.309 265.193,133.447 264.933,132.755 264.619 C 132.064 264.305,130.942 263.943,130.262 263.816 C 129.582 263.688,128.526 263.333,127.914 263.026 C 127.303 262.718,126.238 262.365,125.549 262.240 C 124.859 262.115,123.550 261.673,122.640 261.257 C 121.729 260.842,120.723 260.502,120.404 260.502 C 120.085 260.502,118.887 260.149,117.742 259.718 C 116.597 259.287,115.273 258.934,114.800 258.934 C 114.327 258.934,113.398 258.644,112.736 258.288 C 112.073 257.933,110.806 257.560,109.919 257.458 C 109.033 257.357,107.570 256.951,106.668 256.557 C 105.767 256.163,104.356 255.741,103.533 255.621 C 102.711 255.501,101.398 255.153,100.615 254.848 C 99.833 254.543,98.352 254.191,97.324 254.065 C 96.296 253.939,94.781 253.574,93.959 253.252 C 93.136 252.931,91.681 252.577,90.724 252.464 C 87.702 252.109,87.151 250.778,89.021 248.351 C 90.041 247.026,91.850 244.242,91.850 243.995 C 91.850 243.873,92.647 242.565,93.621 241.088 C 95.351 238.463,96.171 237.184,97.754 234.639 C 98.183 233.950,98.908 232.821,99.366 232.132 C 99.824 231.442,100.584 230.206,101.055 229.385 C 101.526 228.564,102.575 226.994,103.385 225.896 C 104.196 224.798,105.282 223.168,105.799 222.274 C 106.861 220.438,108.094 218.681,109.062 217.623 C 109.620 217.013,109.645 216.880,109.233 216.722 C 108.968 216.620,108.718 216.590,108.679 216.654 C 108.640 216.718,108.105 217.547,107.489 218.495 C 106.873 219.444,105.895 220.995,105.314 221.944 C 104.734 222.892,103.649 224.514,102.903 225.549 C 102.158 226.583,101.108 228.135,100.570 228.997 C 100.032 229.859,99.261 231.093,98.856 231.740 C 98.451 232.386,97.789 233.444,97.386 234.091 C 96.982 234.737,96.383 235.676,96.053 236.177 C 95.045 237.711,92.262 242.074,91.237 243.730 C 90.703 244.592,89.856 245.933,89.354 246.708 C 88.852 247.484,88.049 248.861,87.570 249.768 L 86.700 251.416 87.348 252.064 C 87.804 252.520,88.657 252.795,90.235 252.993 C 91.466 253.147,92.889 253.489,93.397 253.752 C 93.905 254.014,95.288 254.366,96.471 254.534 C 97.654 254.702,99.156 255.062,99.809 255.335 C 100.462 255.608,101.756 255.971,102.685 256.143 C 103.615 256.315,104.978 256.717,105.714 257.037 C 106.451 257.357,107.829 257.720,108.777 257.843 C 109.726 257.967,110.995 258.317,111.599 258.620 C 112.202 258.924,113.331 259.276,114.107 259.402 C 114.882 259.528,116.324 259.969,117.310 260.380 C 118.296 260.792,119.425 261.130,119.818 261.131 C 120.211 261.133,121.238 261.481,122.100 261.905 C 122.962 262.329,124.060 262.681,124.539 262.686 C 125.019 262.692,126.249 263.049,127.273 263.480 C 128.297 263.911,129.391 264.263,129.705 264.263 C 130.018 264.263,130.834 264.550,131.517 264.901 C 132.200 265.252,133.393 265.693,134.169 265.881 C 134.945 266.069,135.909 266.427,136.310 266.677 C 136.712 266.927,137.770 267.326,138.662 267.563 C 139.553 267.799,140.841 268.282,141.524 268.636 C 142.207 268.990,142.974 269.279,143.227 269.279 C 143.481 269.279,144.263 269.547,144.964 269.875 C 145.665 270.203,146.799 270.647,147.485 270.863 C 148.170 271.079,149.158 271.515,149.679 271.833 C 150.200 272.151,150.839 272.416,151.097 272.422 C 151.356 272.428,152.273 272.780,153.135 273.204 C 153.997 273.628,154.895 273.977,155.130 273.978 C 155.365 273.980,156.070 274.251,156.697 274.580 C 157.324 274.909,159.036 275.699,160.502 276.334 C 161.967 276.970,163.730 277.748,164.420 278.063 C 165.110 278.377,166.520 279.012,167.555 279.472 C 169.242 280.223,171.882 281.486,179.310 285.097 C 180.603 285.725,183.636 287.295,186.050 288.585 C 188.464 289.875,191.144 291.291,192.006 291.731 C 194.321 292.913,195.865 293.764,197.915 294.987 C 199.963 296.210,201.365 297.018,203.448 298.176 C 204.224 298.607,206.294 299.836,208.048 300.906 C 209.801 301.977,211.706 302.928,212.279 303.020 C 213.347 303.191,213.301 303.214,217.085 300.630 C 221.023 297.941,223.158 296.579,225.235 295.429 C 225.752 295.143,226.437 294.679,226.756 294.398 C 227.075 294.117,227.884 293.605,228.554 293.260 C 230.621 292.197,233.965 290.232,234.953 289.501 C 235.470 289.118,236.225 288.700,236.631 288.572 C 237.037 288.443,237.868 288.000,238.477 287.586 C 239.087 287.172,239.746 286.834,239.943 286.834 C 240.139 286.834,240.638 286.587,241.053 286.285 C 241.994 285.600,246.806 282.936,248.276 282.287 C 248.879 282.021,249.585 281.662,249.843 281.490 C 250.102 281.317,251.019 280.827,251.881 280.400 C 252.743 279.974,253.660 279.493,253.918 279.332 C 254.913 278.713,258.535 277.116,258.959 277.109 C 259.204 277.105,259.757 276.826,260.188 276.489 C 260.619 276.152,261.113 275.873,261.285 275.869 C 261.458 275.865,262.445 275.457,263.480 274.962 C 267.104 273.228,268.983 272.414,269.364 272.413 C 269.576 272.412,270.596 271.989,271.630 271.473 C 272.665 270.957,273.726 270.535,273.990 270.534 C 274.253 270.533,274.781 270.314,275.163 270.046 C 275.545 269.779,276.599 269.344,277.506 269.079 C 278.412 268.815,279.436 268.420,279.781 268.203 C 280.125 267.985,281.149 267.630,282.054 267.414 C 282.960 267.198,283.778 266.897,283.873 266.744 C 283.967 266.591,284.848 266.235,285.831 265.952 C 286.814 265.669,288.111 265.193,288.715 264.895 C 289.318 264.596,290.424 264.257,291.173 264.142 C 291.922 264.027,293.050 263.675,293.681 263.359 C 294.312 263.043,295.425 262.692,296.156 262.580 C 296.887 262.468,298.015 262.107,298.664 261.779 C 299.313 261.451,300.478 261.088,301.254 260.972 C 302.030 260.857,303.535 260.422,304.599 260.005 C 305.663 259.589,307.003 259.245,307.577 259.241 C 308.151 259.237,309.244 258.951,310.007 258.605 C 310.769 258.259,312.364 257.838,313.552 257.670 C 314.739 257.502,316.127 257.149,316.635 256.886 C 317.143 256.623,318.708 256.264,320.112 256.088 C 321.517 255.912,323.174 255.549,323.794 255.282 C 324.414 255.015,325.962 254.675,327.234 254.525 C 328.505 254.376,330.375 253.967,331.388 253.616 C 332.402 253.265,333.830 252.976,334.562 252.973 C 337.913 252.962,338.205 251.551,335.659 247.686 C 334.753 246.311,333.765 244.788,333.462 244.301 C 333.160 243.815,332.243 242.340,331.425 241.024 C 330.607 239.707,329.668 238.226,329.339 237.732 C 329.010 237.238,328.036 235.705,327.175 234.326 C 326.313 232.947,325.207 231.231,324.717 230.513 C 324.226 229.795,323.824 229.103,323.824 228.975 C 323.824 228.847,323.472 228.280,323.041 227.716 C 322.610 227.151,322.114 226.362,321.938 225.962 C 321.762 225.562,321.232 224.649,320.762 223.933 C 319.467 221.962,316.201 216.648,315.712 215.715 C 315.474 215.261,315.035 214.608,314.736 214.263 C 314.437 213.918,313.669 212.719,313.030 211.599 C 312.390 210.478,311.560 209.114,311.184 208.566 C 310.809 208.019,310.078 206.846,309.561 205.959 C 307.872 203.063,306.689 201.723,304.503 200.226 C 303.319 199.417,300.729 197.627,298.746 196.250 C 296.763 194.872,294.154 193.090,292.947 192.290 C 291.740 191.489,290.541 190.630,290.282 190.380 C 290.024 190.131,288.472 189.071,286.834 188.025 C 283.546 185.926,280.299 183.746,276.019 180.764 C 274.467 179.683,271.998 177.979,270.533 176.978 C 269.067 175.976,267.586 174.908,267.241 174.605 C 266.497 173.950,265.401 173.575,265.103 173.873 M259.643 185.893 C 259.265 186.842,258.750 188.534,258.497 189.655 C 258.245 190.776,257.876 192.116,257.677 192.633 C 256.829 194.839,255.507 204.992,255.166 211.912 C 254.974 215.792,254.695 219.741,254.544 220.690 C 254.394 221.638,254.115 223.754,253.924 225.392 C 253.602 228.162,252.563 233.576,251.577 237.618 C 250.418 242.371,249.756 244.762,249.350 245.659 C 248.745 246.995,248.805 247.406,249.435 246.242 C 250.032 245.138,250.266 244.277,253.012 233.059 C 253.352 231.672,253.763 229.274,253.925 227.730 C 254.087 226.185,254.359 224.448,254.528 223.868 C 254.959 222.389,255.419 217.731,255.786 211.129 C 256.161 204.395,257.162 196.550,258.006 193.730 C 258.342 192.610,258.699 191.270,258.801 190.752 C 258.903 190.235,259.341 188.805,259.774 187.573 C 260.747 184.805,260.638 183.398,259.643 185.893 M247.727 250.636 C 247.339 251.587,247.025 252.539,247.029 252.750 C 247.033 252.962,247.385 252.288,247.812 251.254 C 248.238 250.219,248.552 249.268,248.509 249.140 C 248.467 249.012,248.115 249.685,247.727 250.636 M245.981 255.344 C 245.245 256.888,245.348 257.151,246.118 255.691 C 246.468 255.029,246.698 254.431,246.631 254.363 C 246.563 254.295,246.270 254.737,245.981 255.344 M176.019 270.973 C 176.536 271.419,177.453 272.016,178.056 272.299 C 178.660 272.581,180.212 273.301,181.505 273.898 C 182.798 274.495,184.429 275.252,185.130 275.579 C 185.831 275.907,186.568 276.176,186.768 276.176 C 186.967 276.176,187.734 276.445,188.471 276.773 C 190.359 277.615,196.061 279.114,196.585 278.906 C 196.842 278.804,196.722 278.723,196.296 278.708 C 195.897 278.695,195.312 278.545,194.997 278.377 C 194.682 278.208,193.175 277.731,191.648 277.317 C 190.121 276.903,188.166 276.277,187.304 275.927 C 182.099 273.810,177.830 271.857,176.176 270.837 L 175.078 270.160 176.019 270.973 M235.885 275.037 C 235.545 275.272,234.463 275.697,233.480 275.981 C 232.497 276.265,231.607 276.636,231.502 276.807 C 231.397 276.977,231.002 277.127,230.624 277.141 C 230.223 277.155,230.114 277.236,230.363 277.335 C 230.598 277.428,231.444 277.215,232.244 276.861 C 233.044 276.507,234.069 276.139,234.521 276.044 C 234.974 275.948,235.679 275.591,236.089 275.250 C 236.942 274.539,236.807 274.398,235.885 275.037 M226.489 278.083 C 225.532 278.464,223.535 278.824,221.360 279.008 C 219.401 279.174,216.368 279.517,214.620 279.771 C 212.872 280.025,210.666 280.281,209.718 280.340 C 208.233 280.433,208.319 280.456,210.345 280.504 C 211.638 280.535,213.542 280.421,214.577 280.250 C 215.611 280.079,218.478 279.725,220.947 279.465 C 223.415 279.204,225.844 278.779,226.344 278.521 C 226.844 278.262,227.786 277.925,228.438 277.772 C 229.295 277.570,229.406 277.488,228.840 277.476 C 228.409 277.466,227.351 277.740,226.489 278.083 M198.197 279.213 C 198.499 279.292,198.993 279.292,199.295 279.213 C 199.596 279.134,199.350 279.070,198.746 279.070 C 198.143 279.070,197.896 279.134,198.197 279.213 M204.154 280.153 C 204.455 280.232,204.949 280.232,205.251 280.153 C 205.553 280.075,205.306 280.010,204.702 280.010 C 204.099 280.010,203.852 280.075,204.154 280.153 " stroke="none" fill="#7a7cca" fill-rule="evenodd"></path><path id="path6" d="M265.831 20.933 C 265.400 20.980,264.412 21.168,263.636 21.351 C 262.861 21.534,261.472 21.807,260.552 21.958 C 258.182 22.348,255.856 23.975,254.518 26.179 C 251.667 30.875,249.860 32.771,246.694 34.390 C 242.419 36.576,240.910 38.164,239.794 41.650 C 239.483 42.622,238.985 44.052,238.688 44.828 C 238.232 46.016,238.142 47.448,238.117 53.921 L 238.088 61.605 239.107 63.145 C 239.667 63.991,240.129 64.836,240.134 65.022 C 240.147 65.565,242.209 67.634,243.629 68.531 C 245.412 69.655,247.944 72.353,248.140 73.334 C 248.228 73.776,248.525 74.914,248.800 75.862 C 249.571 78.522,249.667 81.502,249.049 83.610 C 248.757 84.607,248.407 86.807,248.272 88.498 C 248.118 90.431,247.857 91.769,247.569 92.103 C 246.951 92.818,246.395 94.546,246.395 95.749 C 246.395 96.290,246.115 97.281,245.774 97.951 C 245.432 98.621,245.009 99.945,244.834 100.891 C 244.659 101.838,244.294 102.858,244.023 103.158 C 243.752 103.457,243.327 104.377,243.079 105.202 C 242.831 106.027,242.420 107.019,242.166 107.406 C 241.912 107.794,241.553 108.787,241.367 109.615 C 241.182 110.442,240.845 111.332,240.617 111.594 C 240.390 111.855,240.028 112.633,239.812 113.323 C 239.596 114.013,239.238 114.788,239.016 115.047 C 238.590 115.544,237.211 118.506,236.518 120.415 C 236.292 121.040,235.509 122.592,234.780 123.863 C 234.050 125.135,232.874 127.244,232.166 128.549 C 229.033 134.322,228.871 134.418,225.487 132.503 C 224.142 131.742,222.688 131.011,222.257 130.879 C 221.826 130.747,221.121 130.395,220.690 130.097 C 220.259 129.799,219.140 129.304,218.203 128.997 C 214.608 127.818,214.042 127.237,215.387 126.105 C 219.590 122.568,221.882 115.318,220.894 108.680 C 218.421 92.059,195.961 85.839,184.579 98.624 C 183.614 99.708,181.505 102.703,181.505 102.990 C 181.505 103.091,181.137 103.951,180.688 104.900 C 177.487 111.667,179.789 120.911,186.153 126.842 C 188.499 129.028,188.540 129.092,188.109 129.898 C 187.867 130.351,187.502 130.721,187.298 130.721 C 186.426 130.721,181.756 133.484,177.429 136.558 C 173.811 139.130,168.737 144.078,162.539 151.078 C 148.964 166.411,136.474 171.802,129.810 165.204 C 128.989 164.391,126.962 160.648,126.960 159.943 C 126.960 159.721,126.626 158.875,126.218 158.062 C 125.811 157.248,125.378 155.677,125.256 154.569 C 125.134 153.461,124.762 152.020,124.430 151.368 C 123.976 150.478,123.824 149.532,123.824 147.579 L 123.824 144.976 125.376 144.239 C 128.977 142.529,132.305 139.006,134.444 134.639 L 135.518 132.445 135.520 126.625 L 135.521 120.806 134.220 118.129 C 132.599 114.797,130.982 112.933,128.619 111.673 C 127.610 111.136,126.086 109.958,125.232 109.056 L 123.680 107.416 123.561 104.208 C 123.390 99.606,121.059 97.357,115.810 96.729 C 114.787 96.607,113.154 96.306,112.180 96.059 C 109.956 95.496,106.980 95.494,104.545 96.052 C 103.511 96.290,101.677 96.584,100.470 96.706 C 99.263 96.827,97.712 97.178,97.022 97.486 C 96.332 97.793,95.415 98.141,94.984 98.259 C 89.085 99.873,82.297 105.432,79.643 110.823 C 79.099 111.929,78.521 112.916,78.359 113.016 C 78.197 113.116,77.834 114.002,77.551 114.985 C 77.269 115.967,76.848 117.143,76.617 117.597 C 76.386 118.051,76.041 119.743,75.849 121.358 C 75.658 122.973,75.274 124.929,74.997 125.705 C 74.238 127.829,74.237 140.543,74.995 144.049 C 75.293 145.431,75.684 148.605,75.862 151.102 C 76.041 153.599,76.394 156.418,76.647 157.366 C 76.900 158.315,77.312 160.738,77.562 162.752 C 77.813 164.766,78.248 166.859,78.529 167.403 C 78.811 167.947,79.165 169.544,79.316 170.952 C 79.468 172.359,79.881 174.319,80.235 175.306 C 80.588 176.293,80.878 177.428,80.878 177.829 C 80.878 178.230,81.454 180.173,82.158 182.148 C 82.863 184.122,83.714 186.513,84.050 187.461 C 84.387 188.409,84.797 189.467,84.963 189.812 C 85.129 190.157,85.444 190.933,85.662 191.536 C 86.040 192.582,87.330 195.045,89.028 197.966 C 89.459 198.707,90.078 199.785,90.404 200.362 C 90.730 200.939,91.396 201.904,91.886 202.508 C 92.375 203.111,93.096 204.016,93.488 204.519 C 97.051 209.088,107.572 217.891,107.507 216.248 C 107.498 216.019,106.193 214.987,104.607 213.955 C 96.952 208.975,89.435 199.236,85.609 189.342 C 85.042 187.876,84.301 185.972,83.962 185.110 C 82.600 181.646,79.856 171.365,79.487 168.339 C 79.372 167.390,79.069 165.803,78.815 164.810 C 78.560 163.818,78.209 161.843,78.035 160.422 C 77.860 159.000,77.446 156.356,77.114 154.545 C 71.602 124.469,78.320 104.591,95.925 98.894 C 96.873 98.587,97.950 98.141,98.318 97.902 C 100.677 96.370,115.345 96.728,118.657 98.398 C 122.042 100.105,122.662 101.026,122.882 104.672 C 122.997 106.581,123.238 107.998,123.508 108.355 C 124.766 110.014,126.340 111.424,127.733 112.136 C 129.883 113.236,132.607 116.169,133.386 118.223 C 133.730 119.133,134.181 120.306,134.387 120.832 C 135.165 122.818,134.904 131.574,134.009 133.495 C 133.580 134.417,133.229 135.341,133.229 135.548 C 133.229 136.999,129.113 141.214,125.811 143.145 C 124.691 143.800,123.625 144.615,123.443 144.955 C 122.990 145.800,123.337 150.701,123.954 152.177 C 124.223 152.821,124.595 154.287,124.780 155.436 C 125.124 157.562,125.608 158.816,127.623 162.803 C 131.615 170.700,139.669 170.719,150.943 162.859 C 155.051 159.995,158.007 157.259,163.323 151.401 C 170.449 143.548,175.958 138.386,180.094 135.685 C 182.498 134.115,186.721 131.676,187.859 131.201 C 190.018 130.299,190.037 129.345,187.931 127.611 C 175.027 116.986,178.616 99.059,194.671 93.947 C 204.182 90.919,215.608 96.187,219.102 105.211 C 221.839 112.279,219.995 120.848,214.632 125.979 C 213.024 127.517,214.966 129.781,217.894 129.781 C 218.068 129.781,218.873 130.133,219.683 130.564 C 220.492 130.995,221.297 131.348,221.471 131.348 C 221.645 131.348,222.940 132.035,224.350 132.873 C 228.282 135.213,229.023 135.264,230.117 133.270 C 230.460 132.644,231.179 131.426,231.715 130.564 C 232.729 128.933,233.672 127.270,235.092 124.608 C 235.552 123.746,236.088 122.759,236.284 122.414 C 236.607 121.843,237.575 119.768,239.720 115.047 C 240.150 114.099,240.841 112.616,241.255 111.751 C 241.668 110.886,242.006 110.049,242.006 109.891 C 242.006 109.732,242.276 109.029,242.606 108.328 C 243.709 105.981,244.871 102.993,245.343 101.289 C 245.600 100.360,245.999 99.302,246.231 98.938 C 246.462 98.574,246.820 97.429,247.027 96.395 C 247.233 95.361,247.653 93.950,247.959 93.260 C 248.265 92.571,248.614 91.047,248.736 89.874 C 248.857 88.702,249.226 86.798,249.556 85.644 C 251.426 79.105,249.457 71.510,245.111 68.495 C 243.012 67.039,241.094 64.916,240.013 62.853 L 239.028 60.972 239.077 54.699 C 239.115 49.864,239.248 47.995,239.658 46.548 C 239.950 45.516,240.354 43.966,240.555 43.103 C 241.193 40.371,244.845 36.050,246.517 36.050 C 247.801 36.050,252.695 31.759,253.867 29.606 C 255.116 27.310,257.509 24.587,258.906 23.870 C 261.789 22.391,274.677 22.244,277.413 23.659 C 277.903 23.913,278.918 24.213,279.669 24.326 C 280.420 24.440,281.317 24.782,281.661 25.087 C 282.006 25.392,283.558 26.243,285.110 26.978 C 286.661 27.714,288.002 28.410,288.088 28.526 C 288.174 28.642,288.495 28.873,288.800 29.040 C 289.984 29.686,294.466 34.390,295.031 35.580 C 295.359 36.270,295.823 37.187,296.062 37.618 C 297.413 40.053,298.380 42.345,298.577 43.581 C 298.700 44.353,299.063 46.042,299.384 47.335 C 300.683 52.576,300.753 69.484,299.504 76.303 C 299.248 77.698,298.900 80.251,298.730 81.975 C 298.560 83.699,298.219 85.625,297.971 86.256 C 297.723 86.886,297.366 88.367,297.178 89.547 C 296.989 90.727,296.479 93.103,296.044 94.828 C 295.609 96.552,294.897 99.373,294.461 101.097 C 293.695 104.125,292.287 108.995,291.335 111.912 C 291.082 112.688,290.613 114.240,290.293 115.361 C 289.328 118.736,288.265 121.789,286.219 127.061 C 285.695 128.411,285.266 129.755,285.266 130.048 C 285.266 130.341,285.070 130.862,284.830 131.204 C 284.591 131.546,284.176 132.530,283.908 133.390 C 283.297 135.356,282.015 138.553,281.017 140.600 C 280.596 141.465,280.251 142.296,280.251 142.447 C 280.251 142.598,279.979 143.301,279.647 144.010 C 279.314 144.718,278.595 146.356,278.049 147.649 C 276.360 151.645,271.073 162.524,268.757 166.771 C 265.746 172.289,265.552 172.727,266.123 172.727 C 266.284 172.727,266.931 171.775,267.560 170.611 C 272.362 161.735,275.862 154.792,275.862 154.144 C 275.862 153.890,276.068 153.511,276.320 153.301 C 276.573 153.092,277.066 152.153,277.417 151.215 C 277.768 150.277,278.256 149.197,278.500 148.814 C 278.745 148.432,279.112 147.484,279.314 146.708 C 279.516 145.933,279.863 145.086,280.084 144.828 C 280.304 144.569,280.663 143.805,280.880 143.129 C 281.097 142.453,281.525 141.466,281.831 140.935 C 282.388 139.966,283.526 137.121,284.412 134.483 C 284.673 133.707,285.332 131.944,285.877 130.564 C 287.708 125.929,288.749 123.049,289.049 121.787 C 289.213 121.097,289.615 119.898,289.942 119.122 C 290.775 117.148,291.834 113.976,292.401 111.755 C 292.666 110.721,293.127 109.240,293.426 108.464 C 293.725 107.688,294.064 106.396,294.179 105.592 C 294.294 104.788,294.646 103.589,294.961 102.927 C 295.277 102.266,295.774 100.533,296.066 99.076 C 296.357 97.620,296.727 96.183,296.888 95.883 C 297.048 95.583,297.327 94.235,297.508 92.888 C 297.689 91.541,298.113 89.623,298.451 88.627 C 298.789 87.630,299.186 85.796,299.334 84.552 C 299.482 83.307,299.898 80.737,300.259 78.840 C 302.318 68.008,302.178 50.164,299.984 43.923 C 299.648 42.967,299.373 41.963,299.373 41.692 C 299.373 41.420,299.080 40.640,298.721 39.957 C 298.363 39.274,297.885 38.214,297.660 37.601 C 296.247 33.761,291.137 28.397,286.677 26.073 C 284.465 24.921,281.309 23.511,280.941 23.511 C 280.744 23.511,280.029 23.222,279.350 22.868 C 278.583 22.468,277.027 22.112,275.234 21.927 C 273.649 21.763,272.210 21.541,272.036 21.434 C 271.651 21.196,266.916 20.813,265.831 20.933 " stroke="none" fill="#f6d2a8" fill-rule="evenodd"></path><path id="path7" d="M198.511 32.367 C 197.671 33.267,196.540 36.067,196.201 38.085 C 196.057 38.946,195.790 39.700,195.609 39.761 C 195.427 39.821,194.937 40.527,194.520 41.330 C 192.571 45.079,188.566 49.127,185.266 50.684 C 184.318 51.131,183.206 51.760,182.795 52.081 C 182.384 52.402,181.678 52.666,181.227 52.668 C 180.776 52.669,179.653 53.022,178.731 53.451 C 177.808 53.881,176.779 54.232,176.444 54.232 C 175.438 54.232,174.295 55.628,174.295 56.854 C 174.295 58.518,176.531 60.146,179.553 60.684 C 182.393 61.189,186.460 63.238,188.618 65.252 C 189.512 66.088,190.367 66.771,190.517 66.771 C 190.918 66.771,194.671 72.102,194.671 72.671 C 194.671 72.821,194.950 73.196,195.292 73.505 C 195.633 73.814,195.996 74.577,196.097 75.200 C 196.683 78.796,198.067 81.408,199.533 81.683 C 201.860 82.119,203.374 80.501,204.070 76.832 C 204.485 74.643,208.682 67.295,209.721 66.939 C 209.981 66.850,210.898 66.089,211.758 65.247 C 213.522 63.523,216.043 62.133,219.279 61.100 C 225.168 59.220,226.227 58.472,225.900 56.426 C 225.709 55.235,224.739 54.232,223.777 54.232 C 223.445 54.232,222.627 53.954,221.960 53.613 C 221.293 53.273,220.135 52.899,219.386 52.782 C 218.638 52.666,217.637 52.248,217.163 51.854 C 216.689 51.460,215.807 50.959,215.204 50.741 C 214.600 50.523,214.107 50.249,214.107 50.132 C 214.107 50.015,213.709 49.755,213.224 49.554 C 210.568 48.454,205.144 41.025,204.195 37.189 C 203.215 33.226,202.116 31.661,200.313 31.661 C 199.530 31.661,198.961 31.884,198.511 32.367 M201.851 33.418 C 202.204 33.867,202.795 35.243,203.163 36.475 C 204.984 42.556,207.893 46.628,213.224 50.559 C 213.859 51.027,214.493 51.414,214.634 51.418 C 214.775 51.421,215.243 51.699,215.674 52.035 C 216.105 52.371,218.259 53.228,220.460 53.940 C 226.579 55.919,226.736 58.203,220.848 59.592 C 213.228 61.390,205.461 68.763,203.575 75.989 C 201.793 82.821,199.446 83.044,197.231 76.592 C 196.068 73.201,195.848 72.758,193.808 69.676 C 190.902 65.290,184.761 60.991,179.816 59.883 C 174.516 58.695,173.483 55.658,177.947 54.385 C 186.694 51.891,191.708 48.175,195.494 41.379 C 196.023 40.431,196.556 39.232,196.678 38.715 C 197.907 33.533,200.141 31.245,201.851 33.418 M266.292 172.741 C 265.991 173.229,266.538 173.748,269.373 175.663 C 270.787 176.618,273.566 178.533,275.549 179.918 C 278.978 182.314,281.782 184.199,286.898 187.547 C 289.570 189.296,292.217 191.112,295.925 193.739 C 298.946 195.880,301.723 197.799,304.724 199.817 C 305.857 200.579,307.237 201.813,307.791 202.560 C 309.488 204.848,310.315 206.078,310.705 206.897 C 311.029 207.574,312.260 209.528,315.260 214.123 C 315.660 214.736,315.987 215.317,315.987 215.414 C 315.987 215.511,316.728 216.732,317.633 218.126 C 318.538 219.521,319.687 221.338,320.185 222.165 C 321.421 224.213,322.306 225.626,323.300 227.133 C 323.761 227.832,324.138 228.562,324.138 228.755 C 324.138 228.948,324.465 229.504,324.865 229.992 C 325.508 230.775,327.464 233.780,329.310 236.820 C 330.349 238.532,332.400 241.704,333.142 242.749 C 333.526 243.289,333.969 244.016,334.127 244.366 C 334.285 244.715,335.088 245.985,335.912 247.187 C 338.975 251.656,338.812 252.839,335.077 253.258 C 333.788 253.403,332.270 253.761,331.703 254.054 C 331.137 254.346,329.662 254.669,328.425 254.771 C 327.188 254.873,325.543 255.226,324.770 255.555 C 323.997 255.884,322.163 256.297,320.695 256.472 C 319.226 256.648,317.609 256.994,317.101 257.242 C 316.593 257.491,315.183 257.843,313.967 258.025 C 312.750 258.207,311.191 258.621,310.502 258.945 C 309.812 259.269,308.472 259.666,307.524 259.828 C 306.575 259.990,304.992 260.419,304.005 260.782 C 303.018 261.145,301.813 261.442,301.328 261.442 C 300.843 261.442,299.898 261.722,299.227 262.063 C 298.557 262.405,297.261 262.823,296.347 262.992 C 295.433 263.161,294.365 263.502,293.973 263.750 C 293.581 263.998,292.515 264.356,291.604 264.545 C 290.693 264.734,289.394 265.171,288.717 265.516 C 288.040 265.862,287.233 266.146,286.925 266.147 C 286.616 266.149,285.656 266.480,284.792 266.882 C 283.928 267.285,282.658 267.718,281.971 267.846 C 281.283 267.974,280.509 268.264,280.251 268.491 C 279.992 268.719,279.016 269.129,278.081 269.404 C 277.147 269.679,276.076 270.104,275.702 270.350 C 275.328 270.595,274.400 270.961,273.639 271.163 C 272.879 271.366,272.045 271.711,271.787 271.931 C 271.528 272.150,270.898 272.429,270.386 272.552 C 269.875 272.674,268.676 273.130,267.722 273.565 C 266.768 274.000,265.212 274.710,264.263 275.141 C 263.315 275.573,261.834 276.256,260.972 276.659 C 260.110 277.062,259.052 277.489,258.621 277.608 C 258.190 277.728,257.484 278.069,257.053 278.368 C 256.622 278.666,255.743 279.081,255.098 279.290 C 254.454 279.499,253.854 279.789,253.764 279.934 C 253.674 280.080,252.508 280.714,251.173 281.344 C 248.375 282.663,248.271 282.718,243.887 285.169 C 242.077 286.181,240.243 287.192,239.812 287.416 C 236.429 289.173,230.589 292.580,229.957 293.167 C 229.622 293.477,229.199 293.731,229.016 293.731 C 228.833 293.731,227.696 294.381,226.489 295.174 C 225.282 295.967,223.896 296.823,223.408 297.075 C 222.921 297.327,221.863 298.038,221.057 298.656 C 220.252 299.273,219.169 299.974,218.652 300.215 C 218.135 300.455,217.147 301.074,216.458 301.589 C 213.859 303.533,213.856 303.534,212.210 303.376 C 211.191 303.278,210.386 302.988,209.923 302.553 C 209.529 302.183,209.019 301.881,208.790 301.881 C 208.560 301.881,207.608 301.374,206.674 300.754 C 204.558 299.349,201.801 297.706,200.157 296.868 C 199.467 296.517,198.339 295.886,197.649 295.466 C 196.959 295.047,195.660 294.330,194.762 293.873 C 193.864 293.416,192.965 292.845,192.765 292.603 C 192.564 292.361,192.166 292.163,191.881 292.163 C 191.596 292.163,191.014 291.919,190.588 291.621 C 188.410 290.096,166.038 278.997,165.141 278.997 C 164.970 278.997,164.447 278.724,163.979 278.391 C 163.511 278.057,162.713 277.684,162.207 277.561 C 161.700 277.439,160.792 277.080,160.188 276.765 C 159.585 276.451,158.174 275.817,157.053 275.358 C 155.933 274.898,154.118 274.119,153.021 273.625 C 151.924 273.131,150.865 272.727,150.668 272.727 C 150.470 272.727,149.646 272.375,148.836 271.944 C 148.027 271.513,147.141 271.160,146.869 271.160 C 146.597 271.160,145.709 270.826,144.896 270.419 C 144.082 270.011,142.902 269.584,142.273 269.470 C 141.644 269.356,140.798 269.002,140.392 268.685 C 139.987 268.367,139.161 268.011,138.558 267.894 C 137.955 267.778,136.826 267.418,136.050 267.095 C 135.274 266.772,134.005 266.298,133.229 266.042 C 130.470 265.131,128.662 264.491,127.116 263.876 C 126.254 263.534,124.895 263.139,124.095 262.999 C 123.296 262.859,122.067 262.452,121.365 262.093 C 120.662 261.735,119.725 261.442,119.282 261.442 C 118.839 261.442,117.639 261.089,116.614 260.658 C 115.590 260.227,114.431 259.873,114.038 259.872 C 113.645 259.870,112.593 259.529,111.701 259.113 C 110.809 258.698,109.257 258.258,108.253 258.136 C 107.248 258.013,105.933 257.666,105.329 257.364 C 104.726 257.061,103.456 256.713,102.508 256.589 C 101.560 256.466,100.149 256.083,99.373 255.739 C 98.597 255.396,96.987 254.987,95.795 254.832 C 94.602 254.677,93.275 254.319,92.844 254.037 C 92.414 253.755,91.001 253.405,89.703 253.260 C 85.418 252.779,85.522 250.930,90.189 244.641 C 90.585 244.108,90.909 243.519,90.909 243.333 C 90.909 243.147,91.240 242.596,91.644 242.109 C 92.048 241.621,92.930 240.306,93.603 239.185 C 94.277 238.064,95.081 236.795,95.390 236.364 C 95.700 235.933,96.391 234.875,96.926 234.013 C 98.878 230.869,99.303 230.206,100.942 227.743 C 101.860 226.364,103.308 224.177,104.159 222.884 C 105.011 221.591,106.101 219.950,106.582 219.238 C 107.765 217.489,107.979 216.736,107.360 216.498 C 107.087 216.394,106.936 216.424,107.023 216.566 C 107.111 216.707,106.836 217.333,106.412 217.956 C 105.989 218.579,105.643 219.184,105.643 219.299 C 105.643 219.415,105.219 219.992,104.702 220.581 C 104.185 221.170,103.762 221.846,103.762 222.083 C 103.762 222.320,103.223 223.197,102.564 224.031 C 101.195 225.764,97.808 231.079,97.251 232.367 C 97.046 232.841,96.748 233.229,96.588 233.229 C 96.309 233.229,94.589 236.000,93.864 237.618 C 93.671 238.049,93.280 238.595,92.995 238.832 C 92.710 239.068,92.476 239.493,92.476 239.775 C 92.476 240.057,92.183 240.472,91.824 240.696 C 91.464 240.920,90.893 241.695,90.553 242.417 C 89.993 243.608,89.461 244.486,87.646 247.218 C 87.316 247.714,86.717 248.620,86.313 249.233 C 84.781 251.561,85.470 253.133,88.245 253.636 C 89.279 253.824,90.831 254.263,91.693 254.613 C 92.555 254.963,94.227 255.377,95.410 255.533 C 96.592 255.690,97.983 256.037,98.501 256.305 C 99.020 256.573,100.239 256.866,101.211 256.956 C 102.183 257.047,103.676 257.458,104.529 257.871 C 105.454 258.318,106.644 258.621,107.479 258.621 C 108.416 258.621,109.333 258.886,110.249 259.423 C 111.002 259.865,112.473 260.364,113.518 260.532 C 114.563 260.700,115.739 261.049,116.133 261.307 C 116.527 261.565,117.607 261.865,118.534 261.974 C 119.461 262.082,120.593 262.446,121.049 262.782 C 121.505 263.118,122.563 263.466,123.400 263.557 C 124.237 263.647,125.486 264.044,126.176 264.439 C 126.865 264.834,127.992 265.260,128.680 265.386 C 129.368 265.512,130.497 265.872,131.188 266.186 C 131.879 266.500,132.733 266.760,133.084 266.764 C 133.436 266.768,134.245 267.037,134.883 267.363 C 135.521 267.688,136.556 268.050,137.183 268.168 C 137.810 268.285,138.837 268.722,139.465 269.137 C 140.092 269.552,141.097 269.986,141.698 270.101 C 142.299 270.216,143.284 270.553,143.887 270.849 C 144.491 271.146,145.541 271.490,146.222 271.613 C 146.902 271.737,147.790 272.099,148.196 272.418 C 148.601 272.737,149.379 273.095,149.924 273.215 C 150.470 273.335,151.416 273.755,152.026 274.149 C 152.636 274.542,153.629 274.963,154.232 275.084 C 154.835 275.204,155.752 275.558,156.270 275.870 C 156.787 276.181,157.734 276.534,158.374 276.652 C 159.015 276.771,159.696 277.058,159.889 277.289 C 160.081 277.521,160.756 277.879,161.389 278.084 C 162.021 278.289,162.892 278.694,163.323 278.984 C 163.754 279.274,164.775 279.760,165.592 280.063 C 166.410 280.366,167.158 280.744,167.257 280.902 C 167.355 281.061,167.723 281.191,168.076 281.191 C 168.639 281.191,170.088 281.844,172.727 283.289 C 173.525 283.725,177.200 285.518,180.878 287.264 C 181.998 287.796,182.986 288.327,183.072 288.442 C 183.158 288.558,185.274 289.688,187.774 290.953 C 190.274 292.218,192.526 293.451,192.778 293.692 C 193.030 293.934,194.171 294.580,195.313 295.127 C 196.455 295.675,197.822 296.431,198.351 296.807 C 198.880 297.184,199.516 297.492,199.765 297.492 C 200.013 297.492,200.480 297.784,200.803 298.140 C 201.126 298.497,202.311 299.252,203.438 299.819 C 204.564 300.385,206.040 301.225,206.717 301.686 C 207.394 302.147,208.276 302.606,208.676 302.707 C 209.077 302.807,209.404 302.999,209.404 303.133 C 209.404 303.597,211.542 304.389,212.795 304.389 C 213.835 304.389,214.447 304.090,216.329 302.665 C 217.581 301.716,218.760 300.940,218.950 300.940 C 219.141 300.940,220.280 300.227,221.482 299.354 C 222.684 298.482,224.126 297.572,224.687 297.333 C 225.247 297.093,225.705 296.760,225.705 296.592 C 225.705 296.425,226.702 295.828,227.921 295.266 C 229.140 294.704,230.380 293.936,230.676 293.560 C 230.973 293.183,231.562 292.769,231.987 292.640 C 232.411 292.512,233.605 291.878,234.639 291.233 C 235.674 290.587,236.825 289.963,237.198 289.845 C 237.571 289.727,238.402 289.213,239.044 288.702 C 239.686 288.192,240.455 287.774,240.753 287.774 C 241.051 287.774,241.631 287.519,242.042 287.207 C 242.454 286.895,243.599 286.251,244.587 285.776 C 245.575 285.301,247.088 284.428,247.949 283.836 C 248.810 283.243,249.645 282.759,249.804 282.759 C 249.963 282.759,250.848 282.365,251.771 281.885 C 252.693 281.404,254.295 280.635,255.329 280.175 C 256.364 279.714,257.563 279.132,257.994 278.879 C 259.098 278.233,262.918 276.489,263.229 276.489 C 263.372 276.489,263.981 276.228,264.581 275.908 C 265.182 275.589,266.238 275.148,266.928 274.928 C 267.618 274.709,268.415 274.325,268.701 274.077 C 268.986 273.828,269.893 273.422,270.716 273.174 C 271.538 272.926,272.433 272.529,272.705 272.290 C 272.976 272.052,273.691 271.753,274.295 271.627 C 274.898 271.500,275.886 271.151,276.489 270.851 C 277.092 270.550,278.090 270.213,278.706 270.101 C 279.322 269.990,280.288 269.558,280.852 269.141 C 281.417 268.724,282.464 268.285,283.179 268.164 C 283.894 268.043,284.972 267.680,285.574 267.358 C 286.175 267.035,286.952 266.768,287.299 266.764 C 287.647 266.760,288.511 266.494,289.219 266.172 C 289.928 265.850,291.112 265.485,291.850 265.361 C 292.587 265.236,293.862 264.797,294.682 264.385 C 295.502 263.973,296.512 263.636,296.928 263.636 C 297.343 263.636,298.380 263.299,299.233 262.887 C 300.086 262.474,301.605 262.048,302.609 261.941 C 303.614 261.833,304.954 261.485,305.587 261.167 C 306.221 260.849,307.542 260.510,308.523 260.413 C 309.565 260.310,310.867 259.916,311.658 259.465 C 312.528 258.968,313.700 258.635,314.948 258.531 C 316.014 258.443,317.425 258.084,318.083 257.734 C 318.893 257.303,320.097 257.051,321.817 256.952 C 323.265 256.869,324.776 256.588,325.335 256.299 C 325.874 256.020,327.484 255.674,328.914 255.529 C 330.343 255.384,331.988 255.020,332.569 254.719 C 333.150 254.419,334.507 254.048,335.584 253.896 C 338.389 253.498,339.185 253.137,339.185 252.261 C 339.185 251.532,337.758 248.261,337.310 247.962 C 337.181 247.876,336.784 247.232,336.429 246.531 C 336.073 245.830,335.561 245.072,335.289 244.847 C 335.018 244.622,334.796 244.268,334.796 244.060 C 334.796 243.853,334.456 243.363,334.039 242.972 C 333.623 242.580,333.199 241.929,333.097 241.524 C 332.996 241.119,332.277 239.899,331.501 238.811 C 330.725 237.724,329.887 236.399,329.640 235.868 C 329.392 235.337,328.970 234.721,328.701 234.498 C 328.433 234.275,328.213 233.914,328.213 233.696 C 328.213 233.270,326.187 230.143,325.575 229.624 C 325.371 229.451,324.671 228.252,324.019 226.959 C 323.367 225.666,322.602 224.350,322.318 224.035 C 321.708 223.357,319.139 219.253,318.054 217.222 C 317.634 216.435,317.068 215.607,316.796 215.381 C 316.524 215.155,316.301 214.811,316.301 214.617 C 316.300 214.422,315.948 213.853,315.517 213.352 C 315.086 212.852,314.733 212.217,314.733 211.942 C 314.733 211.667,314.367 211.019,313.919 210.502 C 313.472 209.984,312.834 209.032,312.503 208.386 C 312.171 207.739,311.792 207.210,311.661 207.210 C 311.530 207.210,311.247 206.822,311.033 206.348 C 309.497 202.947,307.875 200.996,305.172 199.295 C 304.310 198.753,302.970 197.799,302.194 197.175 C 300.821 196.072,298.206 194.429,297.100 193.976 C 296.799 193.852,296.552 193.610,296.552 193.439 C 296.552 193.142,293.039 190.596,292.630 190.596 C 292.367 190.596,290.348 189.110,289.185 188.060 C 288.668 187.594,287.469 186.812,286.520 186.324 C 285.118 185.602,281.184 183.007,279.781 181.880 C 279.608 181.741,278.480 180.960,277.273 180.143 C 274.274 178.114,273.022 177.232,272.100 176.496 C 271.669 176.152,271.200 175.869,271.058 175.866 C 270.641 175.860,267.085 173.033,267.085 172.709 C 267.085 172.312,266.544 172.333,266.292 172.741 " stroke="none" fill="#c6c7e9" fill-rule="evenodd"></path><path id="path8" d="M262.621 22.875 C 258.880 23.256,256.202 25.315,253.867 29.606 C 252.695 31.759,247.801 36.050,246.517 36.050 C 244.845 36.050,241.193 40.371,240.555 43.103 C 240.354 43.966,239.950 45.516,239.658 46.548 C 239.248 47.995,239.115 49.864,239.077 54.699 L 239.028 60.972 240.013 62.853 C 241.094 64.916,243.012 67.039,245.111 68.495 C 249.457 71.510,251.426 79.105,249.556 85.644 C 249.226 86.798,248.857 88.702,248.736 89.874 C 248.614 91.047,248.265 92.571,247.959 93.260 C 247.653 93.950,247.233 95.361,247.027 96.395 C 246.820 97.429,246.462 98.574,246.231 98.938 C 245.999 99.302,245.600 100.360,245.343 101.289 C 244.871 102.993,243.709 105.981,242.606 108.328 C 242.276 109.029,242.006 109.732,242.006 109.891 C 242.006 110.049,241.668 110.886,241.255 111.751 C 240.841 112.616,240.150 114.099,239.720 115.047 C 237.575 119.768,236.607 121.843,236.284 122.414 C 236.088 122.759,235.552 123.746,235.092 124.608 C 233.672 127.270,232.729 128.933,231.715 130.564 C 231.179 131.426,230.460 132.644,230.117 133.270 C 229.023 135.264,228.282 135.213,224.350 132.873 C 222.940 132.035,221.645 131.348,221.471 131.348 C 221.297 131.348,220.492 130.995,219.683 130.564 C 218.873 130.133,218.068 129.781,217.894 129.781 C 214.966 129.781,213.024 127.517,214.632 125.979 C 219.995 120.848,221.839 112.279,219.102 105.211 C 215.608 96.187,204.182 90.919,194.671 93.947 C 178.616 99.059,175.027 116.986,187.931 127.611 C 190.037 129.345,190.018 130.299,187.859 131.201 C 186.721 131.676,182.498 134.115,180.094 135.685 C 175.958 138.386,170.449 143.548,163.323 151.401 C 151.799 164.100,142.928 169.394,134.657 168.509 C 130.399 168.053,125.845 162.025,124.780 155.436 C 124.595 154.287,124.223 152.821,123.954 152.177 C 123.337 150.701,122.990 145.800,123.443 144.955 C 123.625 144.615,124.691 143.800,125.811 143.145 C 129.113 141.214,133.229 136.999,133.229 135.548 C 133.229 135.341,133.580 134.417,134.009 133.495 C 134.904 131.574,135.165 122.818,134.387 120.832 C 134.181 120.306,133.730 119.133,133.386 118.223 C 132.607 116.169,129.883 113.236,127.733 112.136 C 126.340 111.424,124.766 110.014,123.508 108.355 C 123.238 107.998,122.997 106.581,122.882 104.672 C 122.662 101.026,122.042 100.105,118.657 98.398 C 115.345 96.728,100.677 96.370,98.318 97.902 C 97.950 98.141,96.873 98.587,95.925 98.894 C 78.320 104.591,71.602 124.469,77.114 154.545 C 77.446 156.356,77.860 159.000,78.035 160.422 C 78.209 161.843,78.560 163.818,78.815 164.810 C 79.069 165.803,79.372 167.390,79.487 168.339 C 79.856 171.365,82.600 181.646,83.962 185.110 C 84.301 185.972,85.042 187.876,85.609 189.342 C 89.435 199.236,96.952 208.975,104.607 213.955 C 106.193 214.987,107.498 216.007,107.507 216.223 C 107.516 216.438,107.817 216.614,108.177 216.614 C 109.231 216.614,108.722 215.939,106.526 214.422 C 102.367 211.548,100.104 209.737,98.052 207.638 C 94.411 203.915,89.555 196.860,87.833 192.790 C 84.381 184.635,82.478 179.026,81.663 174.608 C 81.552 174.005,81.195 172.665,80.871 171.630 C 80.547 170.596,80.122 168.550,79.927 167.085 C 79.733 165.619,79.378 163.785,79.139 163.009 C 78.899 162.234,78.551 160.056,78.363 158.170 C 78.176 156.285,77.812 153.746,77.553 152.528 C 75.971 145.080,75.987 124.313,77.577 120.506 C 77.810 119.950,78.168 118.671,78.373 117.663 C 78.579 116.655,78.999 115.408,79.306 114.890 C 79.614 114.373,79.971 113.604,80.100 113.180 C 80.964 110.340,86.832 103.899,90.115 102.189 C 90.638 101.917,91.348 101.533,91.693 101.336 C 98.504 97.451,112.628 96.137,118.025 98.886 C 118.887 99.325,119.743 99.684,119.928 99.685 C 120.305 99.687,121.404 100.873,121.918 101.833 C 122.105 102.182,122.258 103.428,122.259 104.603 C 122.262 108.452,123.616 110.549,127.584 112.853 C 129.280 113.837,131.703 116.257,132.354 117.616 C 134.185 121.436,134.222 121.612,134.245 126.522 C 134.280 134.302,131.325 139.756,125.605 142.471 C 124.959 142.777,123.992 143.438,123.456 143.938 L 122.482 144.849 122.651 148.051 C 122.762 150.140,123.043 151.854,123.461 152.978 C 123.814 153.926,124.256 155.577,124.445 156.647 C 125.351 161.791,129.781 168.222,132.873 168.880 C 136.082 169.563,141.099 169.106,143.574 167.905 C 151.130 164.239,157.536 159.254,162.956 152.821 C 171.383 142.820,179.283 136.272,188.553 131.601 C 191.252 130.242,191.249 128.984,188.546 127.121 C 182.525 122.975,179.372 114.199,181.505 107.524 C 181.850 106.444,182.132 105.413,182.132 105.233 C 182.132 104.216,186.341 98.940,188.245 97.571 C 197.028 91.254,208.663 92.631,215.647 100.814 C 219.573 105.414,220.815 112.341,218.763 118.198 C 217.809 120.921,216.987 122.234,214.456 125.078 C 212.001 127.836,212.506 129.295,216.144 129.948 C 217.241 130.146,220.585 131.502,221.944 132.301 C 228.298 136.038,229.317 136.189,230.731 133.610 C 231.082 132.969,231.785 131.810,232.292 131.034 C 232.800 130.259,233.606 128.876,234.084 127.962 C 236.000 124.296,238.866 118.530,239.802 116.458 C 240.348 115.251,241.132 113.558,241.545 112.696 C 242.892 109.888,243.819 107.608,244.050 106.536 C 244.175 105.959,244.612 104.909,245.022 104.204 C 245.432 103.500,245.768 102.613,245.768 102.235 C 245.768 101.856,246.117 100.858,246.544 100.015 C 246.971 99.173,247.414 97.873,247.529 97.126 C 247.644 96.379,248.006 95.077,248.334 94.233 C 248.662 93.389,249.060 91.670,249.219 90.414 C 249.379 89.157,249.816 87.238,250.191 86.149 C 251.250 83.076,251.199 77.001,250.094 74.608 C 249.657 73.660,249.207 72.497,249.095 72.023 C 248.879 71.108,245.795 67.862,244.860 67.565 C 244.248 67.371,240.752 63.547,240.752 63.072 C 240.752 62.909,240.482 62.158,240.152 61.403 C 238.290 57.147,239.698 44.563,242.514 40.293 C 244.050 37.966,244.215 37.806,245.925 36.992 C 249.566 35.258,253.129 32.162,254.567 29.483 C 255.692 27.387,257.858 24.926,259.106 24.328 C 263.558 22.193,277.923 23.041,281.505 25.651 C 281.936 25.965,283.346 26.696,284.639 27.275 C 285.933 27.854,287.282 28.585,287.638 28.898 C 287.994 29.211,288.417 29.468,288.578 29.470 C 288.912 29.473,292.773 33.269,293.732 34.538 C 294.584 35.665,296.091 38.557,296.337 39.537 C 296.447 39.972,296.901 40.866,297.348 41.524 C 297.919 42.366,298.237 43.380,298.422 44.950 C 298.567 46.176,298.921 48.025,299.210 49.060 C 299.981 51.829,299.997 70.086,299.231 73.981 C 298.943 75.447,298.587 78.286,298.441 80.292 C 298.269 82.635,297.985 84.303,297.646 84.959 C 297.356 85.520,296.844 87.531,296.509 89.428 C 296.174 91.325,295.775 93.110,295.623 93.395 C 295.470 93.680,295.189 95.060,294.997 96.461 C 294.805 97.863,294.440 99.426,294.186 99.936 C 293.932 100.445,293.577 101.655,293.398 102.625 C 293.218 103.594,292.848 104.917,292.575 105.564 C 292.301 106.211,291.760 107.939,291.371 109.404 C 290.163 113.965,289.428 116.362,288.393 119.122 C 287.843 120.588,286.722 123.691,285.900 126.019 C 285.079 128.346,283.953 131.379,283.398 132.759 C 282.843 134.138,282.129 136.042,281.811 136.991 C 281.493 137.939,280.941 139.274,280.585 139.957 C 280.229 140.640,279.937 141.394,279.937 141.632 C 279.937 141.871,279.681 142.441,279.367 142.898 C 278.824 143.690,278.127 145.368,276.739 149.216 C 276.398 150.165,276.004 151.082,275.865 151.254 C 275.343 151.903,271.787 159.228,271.787 159.656 C 271.787 159.902,271.524 160.440,271.202 160.851 C 270.715 161.473,268.460 165.652,265.428 171.553 C 265.096 172.200,264.904 172.938,265.002 173.193 C 265.250 173.838,266.207 173.420,265.997 172.759 C 265.839 172.261,266.261 171.345,268.757 166.771 C 271.073 162.524,276.360 151.645,278.049 147.649 C 278.595 146.356,279.314 144.718,279.647 144.010 C 279.979 143.301,280.251 142.598,280.251 142.447 C 280.251 142.296,280.596 141.465,281.017 140.600 C 282.015 138.553,283.297 135.356,283.908 133.390 C 284.176 132.530,284.591 131.546,284.830 131.204 C 285.070 130.862,285.266 130.341,285.266 130.048 C 285.266 129.755,285.695 128.411,286.219 127.061 C 288.265 121.789,289.328 118.736,290.293 115.361 C 290.613 114.240,291.082 112.688,291.335 111.912 C 292.287 108.995,293.695 104.125,294.461 101.097 C 294.897 99.373,295.609 96.552,296.044 94.828 C 296.479 93.103,296.989 90.727,297.178 89.547 C 297.366 88.367,297.723 86.886,297.971 86.256 C 298.219 85.625,298.560 83.699,298.730 81.975 C 298.900 80.251,299.248 77.698,299.504 76.303 C 300.753 69.484,300.683 52.576,299.384 47.335 C 299.063 46.042,298.700 44.353,298.577 43.581 C 298.380 42.345,297.413 40.053,296.062 37.618 C 295.823 37.187,295.359 36.270,295.031 35.580 C 294.466 34.390,289.984 29.686,288.800 29.040 C 288.495 28.873,288.174 28.642,288.088 28.526 C 288.002 28.410,286.661 27.714,285.110 26.978 C 283.558 26.243,282.006 25.392,281.661 25.087 C 281.317 24.782,280.420 24.440,279.669 24.326 C 278.918 24.213,277.918 23.920,277.445 23.676 C 275.808 22.829,267.483 22.379,262.621 22.875 " stroke="none" fill="#f2b095" fill-rule="evenodd"></path></g></svg>